<?xml version="1.0" encoding="UTF-8" standalone="no"?>
<!-- Created with Inkscape (http://www.inkscape.org/) -->

<svg
   width="179.81918mm"
   height="161.70828mm"
   viewBox="0 0 179.81918 161.70828"
   version="1.1"
   id="svg1"
   sodipodi:docname="abalone_grid_danger.svg"
   inkscape:version="1.3.2 (091e20ef0f, 2023-11-25, custom)"
   inkscape:export-filename="abalone_grid_danger.png"
   inkscape:export-xdpi="96"
   inkscape:export-ydpi="96"
   xmlns:inkscape="http://www.inkscape.org/namespaces/inkscape"
   xmlns:sodipodi="http://sodipodi.sourceforge.net/DTD/sodipodi-0.dtd"
   xmlns="http://www.w3.org/2000/svg"
   xmlns:svg="http://www.w3.org/2000/svg">
  <sodipodi:namedview
     id="namedview1"
     pagecolor="#ffffff"
     bordercolor="#000000"
     borderopacity="0.25"
     inkscape:showpageshadow="2"
     inkscape:pageopacity="0.0"
     inkscape:pagecheckerboard="0"
     inkscape:deskcolor="#d1d1d1"
     inkscape:document-units="mm"
     inkscape:zoom="1.4644326"
     inkscape:cx="471.51369"
     inkscape:cy="415.17787"
     inkscape:window-width="1920"
     inkscape:window-height="1008"
     inkscape:window-x="0"
     inkscape:window-y="44"
     inkscape:window-maximized="1"
     inkscape:current-layer="layer1" />
  <defs
     id="defs1" />
  <g
     inkscape:label="Layer 1"
     inkscape:groupmode="layer"
     id="layer1"
     style="display:inline"
     transform="translate(-28.597392,-27.392505)">
    <path
       d="m 78.731628,27.799854 -10.00559,5.776391 v 11.482503 l 0.06149,-0.03566 9.943579,5.740734 9.882601,-5.705078 V 33.576245 l 0.06149,-0.03566 z"
       style="fill:#ff5555;fill-rule:evenodd;stroke:#000000;stroke-width:0.705556"
       id="path340" />
    <path
       d="m 78.669617,50.870797 v -0.07131 l 0.06149,-0.03566 -9.943579,-5.740734 -0.06149,0.03566 v 0.0708 z"
       style="fill:none;fill-rule:evenodd;stroke:#000000;stroke-width:0.705556"
       id="path350" />
    <path
       d="m 78.669617,50.870797 -9.943579,-5.741252 v -0.0708 l -9.944096,5.740735 v 11.482503 l 0.0615,-0.03566 9.944096,5.741251 9.882084,-5.705595 z"
       style="fill:#ffaaaa;fill-rule:evenodd;stroke:#000000;stroke-width:0.705556"
       id="path349" />
    <path
       d="m 68.726038,68.094035 v -0.0708 l 0.06149,-0.03566 -9.944096,-5.741251 -0.0615,0.03566 v 0.0708 z"
       style="fill:none;fill-rule:evenodd;stroke:#000000;stroke-width:0.705556"
       id="path397" />
    <path
       d="m 68.726038,79.505225 v -11.41119 l -9.944096,-5.741252 v -0.0708 l -9.944096,5.741252 v 11.481987 l 0.06201,-0.03566 9.943579,5.741251 z"
       style="fill:#ffaaaa;fill-rule:evenodd;stroke:#000000;stroke-width:0.705556"
       id="path395" />
    <path
       d="m 58.781942,85.317273 -9.944096,-5.740735 v -0.07131 l -9.943579,5.741251 v 11.482503 l 0.0615,-0.03566 9.943579,5.740738 9.882601,-5.705082 z"
       style="fill:#ffaaaa;fill-rule:evenodd;stroke:#000000;stroke-width:0.705556"
       id="path402" />
    <path
       d="m 58.843437,85.210819 -9.943579,-5.741251 -0.06201,0.03566 v 0.07131 l 9.944096,5.740735 v -0.0708 z"
       style="fill:none;fill-rule:evenodd;stroke:#000000;stroke-width:0.705556"
       id="path400" />
    <path
       d="m 48.837846,102.54051 v -0.0708 l 0.0615,-0.0357 -9.943579,-5.740737 -0.0615,0.03566 v 0.0708 z"
       style="fill:none;fill-rule:evenodd;stroke:#000000;stroke-width:0.705556"
       id="path435" />
    <path
       d="m 48.837846,113.95222 v -11.41171 l -9.943579,-5.740734 v -0.0708 l -9.944096,5.740734 v 11.5533 l 9.944096,5.74126 v -0.0713 z"
       style="fill:#ff5555;fill-rule:evenodd;stroke:#000000;stroke-width:0.705556"
       id="path433" />
    <path
       d="m 88.675208,33.540588 -0.06149,0.03566 v 11.482503 l 0.06149,-0.03566 0.06149,0.03566 V 33.576245 Z"
       style="fill:none;fill-rule:evenodd;stroke:#000000;stroke-width:0.705556"
       id="path342" />
    <path
       d="m 88.675208,33.540588 0.06149,0.03566 v 11.482503 l 9.882601,5.705078 9.882091,-5.705078 V 33.576245 l 0.0615,-0.03566 -9.943581,-5.740734 z"
       style="fill:#ffaaaa;fill-rule:evenodd;stroke:#000000;stroke-width:0.705556"
       id="path341" />
    <path
       d="m 78.793123,50.870797 v -0.07131 l -0.06201,-0.03566 -0.06149,0.03566 v 0.07131 l 0.06201,0.03566 z"
       style="fill:none;fill-rule:evenodd;stroke:#000000;stroke-width:0.705556"
       id="path348" />
    <path
       d="m 78.793123,50.870797 -0.06149,0.03566 -0.06201,-0.03566 v 11.411189 l 0.06201,-0.03566 0.06149,0.03566 z"
       style="fill:none;fill-rule:evenodd;stroke:#000000;stroke-width:0.705556"
       id="path347" />
    <path
       d="m 88.675208,45.165202 -0.06149,-0.03566 v -0.0708 l -9.882601,5.705078 0.06201,0.03566 v 0.07131 z"
       style="fill:none;fill-rule:evenodd;stroke:#000000;stroke-width:0.705556"
       id="path346" />
    <path
       d="m 88.675208,45.165202 -9.882085,5.705595 v 11.411189 l 9.882085,5.705595 9.8826,-5.705595 V 50.870797 Z"
       style="fill:#ffad79;fill-opacity:1;fill-rule:evenodd;stroke:#000000;stroke-width:0.705556"
       id="path345" />
    <path
       d="m 88.736702,45.058748 -0.06149,-0.03566 -0.06149,0.03566 v 0.0708 l 0.06149,0.03566 0.06149,-0.03566 z"
       style="fill:none;fill-rule:evenodd;stroke:#000000;stroke-width:0.705556"
       id="path344" />
    <path
       d="m 88.736702,45.058748 v 0.0708 l -0.06149,0.03566 9.8826,5.705595 v -0.07131 l 0.0615,-0.03566 z"
       style="fill:none;fill-rule:evenodd;stroke:#000000;stroke-width:0.705556"
       id="path343" />
    <path
       d="m 68.726038,68.094035 0.06149,0.03566 0.0615,-0.03566 v -0.0708 l -0.0615,-0.03566 -0.06149,0.03566 z"
       style="fill:none;fill-rule:evenodd;stroke:#000000;stroke-width:0.705556"
       id="path398" />
    <path
       d="m 68.726038,79.505225 0.06149,-0.03566 0.0615,0.03566 v -11.41119 l -0.0615,0.03566 -0.06149,-0.03566 z"
       style="fill:none;fill-rule:evenodd;stroke:#000000;stroke-width:0.705556"
       id="path396" />
    <path
       d="m 78.731112,62.38844 -9.882084,5.705595 v 11.41119 l 9.882084,5.705594 9.882601,-5.705594 v -11.41119 z"
       style="fill:#ffad79;fill-opacity:1;fill-rule:evenodd;stroke:#000000;stroke-width:0.705556"
       id="path354" />
    <path
       d="m 78.731112,62.38844 9.882601,5.705595 v -0.0708 l 0.06149,-0.03566 -9.882085,-5.705595 v 0.0708 z"
       style="fill:none;fill-rule:evenodd;stroke:#000000;stroke-width:0.705556"
       id="path353" />
    <path
       d="m 78.669617,62.281986 -9.882084,5.705595 0.0615,0.03566 v 0.0708 l 9.882084,-5.705595 -0.06149,-0.03566 z"
       style="fill:none;fill-rule:evenodd;stroke:#000000;stroke-width:0.705556"
       id="path352" />
    <path
       d="m 78.669617,62.281986 v 0.0708 l 0.06149,0.03566 0.06201,-0.03566 v -0.0708 l -0.06149,-0.03566 z"
       style="fill:none;fill-rule:evenodd;stroke:#000000;stroke-width:0.705556"
       id="path351" />
    <path
       d="m 58.781942,85.317273 v 11.411706 l 0.0615,-0.03566 0.0615,0.03566 V 85.317273 l -0.0615,0.03566 z"
       style="fill:none;fill-rule:evenodd;stroke:#000000;stroke-width:0.705556"
       id="path401" />
    <path
       d="m 58.843437,85.210819 -0.0615,0.03566 v 0.0708 l 0.0615,0.03566 0.0615,-0.03566 v -0.0708 z"
       style="fill:none;fill-rule:evenodd;stroke:#000000;stroke-width:0.705556"
       id="path399" />
    <path
       d="m 68.787533,79.612195 0.0615,-0.03566 v -0.07131 l -0.0615,-0.03566 -0.06149,0.03566 v 0.07131 z"
       style="fill:none;fill-rule:evenodd;stroke:#000000;stroke-width:0.705556"
       id="path394" />
    <path
       d="m 68.787533,79.612195 -0.06149,-0.03566 v -0.07131 l -9.882601,5.705594 0.0615,0.03566 v 0.0708 z"
       style="fill:none;fill-rule:evenodd;stroke:#000000;stroke-width:0.705556"
       id="path393" />
    <path
       d="m 78.669617,85.317273 v -0.0708 l 0.06149,-0.03566 -9.882084,-5.705594 v 0.07131 l -0.0615,0.03566 z"
       style="fill:none;fill-rule:evenodd;stroke:#000000;stroke-width:0.705556"
       id="path392" />
    <path
       d="m 78.669617,85.317273 -9.882084,-5.705078 -9.882601,5.705078 v 11.411706 l 9.882601,5.705081 9.882084,-5.705081 z"
       style="fill:#ffad79;fill-opacity:1;fill-rule:evenodd;stroke:#000000;stroke-width:0.705556"
       id="path391" />
    <path
       d="m 48.837846,102.54051 0.06201,0.0357 0.0615,-0.0357 v -0.0708 l -0.06201,-0.0357 -0.0615,0.0357 z"
       style="fill:none;fill-rule:evenodd;stroke:#000000;stroke-width:0.705556"
       id="path436" />
    <path
       d="m 48.837846,113.95222 0.06201,-0.0357 0.0615,0.0357 v -11.41171 l -0.0615,0.0357 -0.06201,-0.0357 z"
       style="fill:none;fill-rule:evenodd;stroke:#000000;stroke-width:0.705556"
       id="path434" />
    <path
       d="m 58.843437,96.835433 -9.882084,5.705077 v 11.41171 l 9.882084,5.70508 9.882601,-5.70508 v -11.41171 z"
       style="fill:#ffad79;fill-opacity:1;fill-rule:evenodd;stroke:#000000;stroke-width:0.705556"
       id="path406" />
    <path
       d="m 58.843437,96.835433 9.882601,5.705077 v -0.0708 l 0.06149,-0.0357 -9.882601,-5.705081 v 0.0708 z"
       style="fill:none;fill-rule:evenodd;stroke:#000000;stroke-width:0.705556"
       id="path405" />
    <path
       d="m 58.781942,96.728979 -9.882601,5.705081 0.06201,0.0357 v 0.0708 l 9.882084,-5.705077 -0.0615,-0.03566 z"
       style="fill:none;fill-rule:evenodd;stroke:#000000;stroke-width:0.705556"
       id="path404" />
    <path
       d="m 58.781942,96.728979 v 0.0708 l 0.0615,0.03566 0.0615,-0.03566 v -0.0708 l -0.0615,-0.03566 z"
       style="fill:none;fill-rule:evenodd;stroke:#000000;stroke-width:0.705556"
       id="path403" />
    <path
       d="m 48.899341,114.05867 0.06201,-0.0357 v -0.0708 l -0.0615,-0.0357 -0.06201,0.0357 v 0.0708 z"
       style="fill:none;fill-rule:evenodd;stroke:#000000;stroke-width:0.705556"
       id="path432" />
    <path
       d="m 48.899341,114.05867 -0.0615,-0.0357 v -0.0708 l -9.943579,5.74073 v 0.0713 l 0.0615,0.0357 z"
       style="fill:none;fill-rule:evenodd;stroke:#000000;stroke-width:0.705556"
       id="path431" />
    <path
       d="m 58.781942,119.76427 v -0.0713 l 0.0615,-0.0356 -9.882084,-5.70508 v 0.0708 l -0.06201,0.0357 z"
       style="fill:none;fill-rule:evenodd;stroke:#000000;stroke-width:0.705556"
       id="path430" />
    <path
       d="m 58.781942,119.76427 -9.882601,-5.7056 -9.943579,5.74125 -0.0615,-0.0357 v 11.48198 l 9.943579,5.74125 v -0.0708 l 9.944096,-5.74125 z"
       style="fill:#ffaaaa;fill-rule:evenodd;stroke:#000000;stroke-width:0.705556"
       id="path429" />
    <path
       d="m 108.62489,45.058748 9.88209,5.705078 9.8826,-5.705078 V 33.576245 l 0.0615,-0.03566 -9.94409,-5.740734 -9.9441,5.740734 0.062,0.03566 z"
       style="fill:#ffaaaa;fill-rule:evenodd;stroke:#000000;stroke-width:0.705556"
       id="path367" />
    <path
       d="m 108.50139,45.058748 0.0615,-0.03566 0.062,0.03566 V 33.576245 l -0.062,-0.03566 -0.0615,0.03566 z"
       style="fill:none;fill-rule:evenodd;stroke:#000000;stroke-width:0.705556"
       id="path365" />
    <path
       d="m 108.62489,45.058748 v 0.0708 l -0.062,0.03566 9.8826,5.705595 v -0.07131 l 0.0615,-0.03566 z"
       style="fill:none;fill-rule:evenodd;stroke:#000000;stroke-width:0.705556"
       id="path368" />
    <path
       d="m 108.50139,45.058748 v 0.0708 l 0.0615,0.03566 0.062,-0.03566 v -0.0708 l -0.062,-0.03566 z"
       style="fill:none;fill-rule:evenodd;stroke:#000000;stroke-width:0.705556"
       id="path366" />
    <path
       d="m 98.680798,50.870797 9.882082,-5.705595 -0.0615,-0.03566 v -0.0708 l -9.882087,5.705078 0.06149,0.03566 z"
       style="fill:none;fill-rule:evenodd;stroke:#000000;stroke-width:0.705556"
       id="path364" />
    <path
       d="m 98.680798,50.870797 v -0.07131 l -0.06149,-0.03566 -0.0615,0.03566 v 0.07131 l 0.0615,0.03566 z"
       style="fill:none;fill-rule:evenodd;stroke:#000000;stroke-width:0.705556"
       id="path363" />
    <path
       d="m 98.680798,62.281986 9.882082,5.705595 9.8826,-5.705595 V 50.870797 l -9.8826,-5.705595 -9.882082,5.705595 z"
       style="fill:#ffad79;fill-opacity:1;fill-rule:evenodd;stroke:#000000;stroke-width:0.705556"
       id="path362" />
    <path
       d="M 98.680798,62.281986 V 50.870797 l -0.06149,0.03566 -0.0615,-0.03566 v 11.411189 l 0.0615,-0.03566 z"
       style="fill:#ffad79;fill-opacity:1;fill-rule:evenodd;stroke:#000000;stroke-width:0.705556"
       id="path361" />
    <path
       d="m 98.619303,62.38844 9.882087,5.705595 v -0.0708 l 0.0615,-0.03566 -9.882082,-5.705595 v 0.0708 z"
       style="fill:none;fill-rule:evenodd;stroke:#000000;stroke-width:0.705556"
       id="path360" />
    <path
       d="m 98.619303,62.38844 0.06149,-0.03566 v -0.0708 l -0.06149,-0.03566 -0.0615,0.03566 v 0.0708 z"
       style="fill:none;fill-rule:evenodd;stroke:#000000;stroke-width:0.705556"
       id="path359" />
    <path
       d="m 88.736702,68.094035 v 11.41119 l 9.882601,5.705594 9.882087,-5.705594 V 68.094035 L 98.619303,62.38844 Z"
       style="fill:#ffeeaa;fill-rule:evenodd;stroke:#000000;stroke-width:0.705556"
       id="path358" />
    <path
       d="m 88.736702,68.094035 9.882601,-5.705595 -0.0615,-0.03566 v -0.0708 l -9.8826,5.705595 0.06149,0.03566 z"
       style="fill:none;fill-rule:evenodd;stroke:#000000;stroke-width:0.705556"
       id="path357" />
    <path
       d="m 88.613713,68.094035 v 11.41119 l 0.06149,-0.03566 0.06149,0.03566 v -11.41119 l -0.06149,0.03566 z"
       style="fill:none;fill-rule:evenodd;stroke:#000000;stroke-width:0.705556"
       id="path356" />
    <path
       d="m 88.613713,68.094035 0.06149,0.03566 0.06149,-0.03566 v -0.0708 l -0.06149,-0.03566 -0.06149,0.03566 z"
       style="fill:none;fill-rule:evenodd;stroke:#000000;stroke-width:0.705556"
       id="path355" />
    <path
       d="m 78.793123,85.317273 v -0.0708 l -0.06201,-0.03566 -0.06149,0.03566 v 0.0708 l 0.06201,0.03566 z"
       style="fill:none;fill-rule:evenodd;stroke:#000000;stroke-width:0.705556"
       id="path390" />
    <path
       d="m 78.793123,85.317273 -0.06149,0.03566 -0.06201,-0.03566 v 11.411706 l 0.06201,-0.03566 0.06149,0.03566 z"
       style="fill:none;fill-rule:evenodd;stroke:#000000;stroke-width:0.705556"
       id="path389" />
    <path
       d="m 88.675208,79.612195 0.06149,-0.03566 v -0.07131 l -0.06149,-0.03566 -0.06149,0.03566 v 0.07131 z"
       style="fill:none;fill-rule:evenodd;stroke:#000000;stroke-width:0.705556"
       id="path388" />
    <path
       d="m 88.675208,79.612195 -0.06149,-0.03566 v -0.07131 l -9.882601,5.705594 0.06201,0.03566 v 0.0708 z"
       style="fill:none;fill-rule:evenodd;stroke:#000000;stroke-width:0.705556"
       id="path387" />
    <path
       d="m 98.557808,85.317273 v -0.0708 l 0.0615,-0.03566 -9.882601,-5.705594 v 0.07131 l -0.06149,0.03566 z"
       style="fill:none;fill-rule:evenodd;stroke:#000000;stroke-width:0.705556"
       id="path386" />
    <path
       d="m 98.557808,85.317273 -9.8826,-5.705078 -9.882085,5.705078 v 11.411706 l 9.882085,5.705081 9.8826,-5.705081 z"
       style="fill:#ffeeaa;fill-rule:evenodd;stroke:#000000;stroke-width:0.705556"
       id="path385" />
    <path
       d="m 78.731112,96.835433 9.882601,5.705077 v -0.0708 l 0.06149,-0.0357 -9.882085,-5.705081 v 0.0708 z"
       style="fill:none;fill-rule:evenodd;stroke:#000000;stroke-width:0.705556"
       id="path412" />
    <path
       d="m 78.731112,96.835433 0.06201,-0.03566 v -0.0708 l -0.06149,-0.03566 -0.06201,0.03566 v 0.0708 z"
       style="fill:none;fill-rule:evenodd;stroke:#000000;stroke-width:0.705556"
       id="path411" />
    <path
       d="m 68.849028,102.54051 v 11.41171 l 9.882084,5.70508 9.882601,-5.70508 v -11.41171 l -9.882601,-5.705077 z"
       style="fill:#ffeeaa;fill-rule:evenodd;stroke:#000000;stroke-width:0.705556"
       id="path410" />
    <path
       d="m 68.849028,102.54051 9.882084,-5.705077 -0.06149,-0.03566 v -0.0708 l -9.882084,5.705077 0.0615,0.0357 z"
       style="fill:none;fill-rule:evenodd;stroke:#000000;stroke-width:0.705556"
       id="path409" />
    <path
       d="m 68.726038,102.54051 v 11.41171 l 0.06149,-0.0357 0.0615,0.0357 v -11.41171 l -0.0615,0.0357 z"
       style="fill:none;fill-rule:evenodd;stroke:#000000;stroke-width:0.705556"
       id="path408" />
    <path
       d="m 68.726038,102.54051 0.06149,0.0357 0.0615,-0.0357 v -0.0708 l -0.0615,-0.0357 -0.06149,0.0357 z"
       style="fill:none;fill-rule:evenodd;stroke:#000000;stroke-width:0.705556"
       id="path407" />
    <path
       d="m 58.904932,119.76427 v -0.0713 l -0.0615,-0.0356 -0.0615,0.0356 v 0.0713 l 0.0615,0.0357 z"
       style="fill:none;fill-rule:evenodd;stroke:#000000;stroke-width:0.705556"
       id="path428" />
    <path
       d="m 58.904932,119.76427 -0.0615,0.0357 -0.0615,-0.0357 v 11.41119 l 0.0615,-0.0357 0.0615,0.0357 z"
       style="fill:none;fill-rule:evenodd;stroke:#000000;stroke-width:0.705556"
       id="path427" />
    <path
       d="m 68.787533,114.05867 0.0615,-0.0357 v -0.0708 l -0.0615,-0.0357 -0.06149,0.0357 v 0.0708 z"
       style="fill:none;fill-rule:evenodd;stroke:#000000;stroke-width:0.705556"
       id="path426" />
    <path
       d="m 68.787533,114.05867 -0.06149,-0.0357 v -0.0708 l -9.882601,5.70508 0.0615,0.0356 v 0.0713 z"
       style="fill:none;fill-rule:evenodd;stroke:#000000;stroke-width:0.705556"
       id="path425" />
    <path
       d="m 78.669617,119.76427 v -0.0713 l 0.06149,-0.0356 -9.882084,-5.70508 v 0.0708 l -0.0615,0.0357 z"
       style="fill:none;fill-rule:evenodd;stroke:#000000;stroke-width:0.705556"
       id="path424" />
    <path
       d="m 78.669617,119.76427 -9.882084,-5.7056 -9.882601,5.7056 v 11.41119 l 9.882601,5.70559 9.882084,-5.70559 z"
       style="fill:#ffad79;fill-opacity:1;fill-rule:evenodd;stroke:#000000;stroke-width:0.705556"
       id="path423" />
    <path
       d="m 58.843437,131.28191 -9.943579,5.74125 -0.06201,-0.0357 v 11.48251 l 9.944096,5.74073 v -0.0708 l 9.944096,-5.74126 V 136.9875 Z"
       style="fill:#ffaaaa;fill-rule:evenodd;stroke:#000000;stroke-width:0.705556"
       id="path440" />
    <path
       d="m 58.843437,131.28191 9.882601,5.70559 v -0.0708 l 0.06149,-0.0357 -9.882601,-5.70559 v 0.0708 z"
       style="fill:none;fill-rule:evenodd;stroke:#000000;stroke-width:0.705556"
       id="path439" />
    <path
       d="m 58.781942,131.17546 -9.944096,5.74125 v 0.0708 l 0.06201,0.0357 9.943579,-5.74125 -0.0615,-0.0357 z"
       style="fill:none;fill-rule:evenodd;stroke:#000000;stroke-width:0.705556"
       id="path438" />
    <path
       d="m 58.781942,131.17546 v 0.0708 l 0.0615,0.0357 0.0615,-0.0357 v -0.0708 l -0.0615,-0.0357 z"
       style="fill:none;fill-rule:evenodd;stroke:#000000;stroke-width:0.705556"
       id="path437" />
    <path
       d="M 128.51257,45.058748 V 33.576245 l -0.0615,-0.03566 -0.0615,0.03566 v 11.482503 l 0.0615,-0.03566 z"
       style="fill:none;fill-rule:evenodd;stroke:#000000;stroke-width:0.705556"
       id="path615" />
    <path
       d="m 138.39465,50.763826 9.8826,-5.705078 V 33.576245 l 0.0615,-0.03566 -9.9441,-5.740734 -9.94358,5.740734 0.0615,0.03566 v 11.482503 z"
       style="fill:#ffaaaa;fill-rule:evenodd;stroke:#000000;stroke-width:0.705556"
       id="path606" />
    <path
       d="m 128.51257,45.058748 -0.0615,-0.03566 -0.0615,0.03566 v 0.0708 l 0.0615,0.03566 0.0615,-0.03566 z"
       style="fill:none;fill-rule:evenodd;stroke:#000000;stroke-width:0.705556"
       id="path614" />
    <path
       d="m 138.33316,50.870797 v -0.07131 l 0.0615,-0.03566 -9.88208,-5.705078 v 0.0708 l -0.0615,0.03566 z"
       style="fill:none;fill-rule:evenodd;stroke:#000000;stroke-width:0.705556"
       id="path604" />
    <path
       d="m 118.56847,50.870797 -0.0615,0.03566 -0.0615,-0.03566 v 11.411189 l 0.0615,-0.03566 0.0615,0.03566 z"
       style="fill:none;fill-rule:evenodd;stroke:#000000;stroke-width:0.705556"
       id="path372" />
    <path
       d="m 118.56847,50.870797 v 11.411189 l 9.8826,5.705595 9.88209,-5.705595 V 50.870797 l -9.88209,-5.705595 z"
       style="fill:#ffad79;fill-opacity:1;fill-rule:evenodd;stroke:#000000;stroke-width:0.705556"
       id="path371" />
    <path
       d="m 118.50698,50.763826 -0.0615,0.03566 v 0.07131 l 0.0615,0.03566 0.0615,-0.03566 v -0.07131 z"
       style="fill:none;fill-rule:evenodd;stroke:#000000;stroke-width:0.705556"
       id="path370" />
    <path
       d="m 118.50698,50.763826 0.0615,0.03566 v 0.07131 l 9.8826,-5.705595 -0.0615,-0.03566 v -0.0708 z"
       style="fill:none;fill-rule:evenodd;stroke:#000000;stroke-width:0.705556"
       id="path369" />
    <path
       d="m 108.62489,68.094035 v -0.0708 l -0.062,-0.03566 -0.0615,0.03566 v 0.0708 l 0.0615,0.03566 z"
       style="fill:none;fill-rule:evenodd;stroke:#000000;stroke-width:0.705556"
       id="path378" />
    <path
       d="m 108.62489,68.094035 -0.062,0.03566 -0.0615,-0.03566 v 11.41119 l 0.0615,-0.03566 0.062,0.03566 z"
       style="fill:none;fill-rule:evenodd;stroke:#000000;stroke-width:0.705556"
       id="path377" />
    <path
       d="m 118.50698,62.38844 -0.0615,-0.03566 v -0.0708 l -9.8826,5.705595 0.062,0.03566 v 0.0708 z"
       style="fill:none;fill-rule:evenodd;stroke:#000000;stroke-width:0.705556"
       id="path376" />
    <path
       d="m 118.50698,62.38844 -9.88209,5.705595 v 11.41119 l 9.88209,5.705594 9.8826,-5.705594 v -11.41119 z"
       style="fill:#ffeeaa;fill-rule:evenodd;stroke:#000000;stroke-width:0.705556"
       id="path375" />
    <path
       d="m 118.56847,62.281986 -0.0615,-0.03566 -0.0615,0.03566 v 0.0708 l 0.0615,0.03566 0.0615,-0.03566 z"
       style="fill:none;fill-rule:evenodd;stroke:#000000;stroke-width:0.705556"
       id="path374" />
    <path
       d="m 118.56847,62.281986 v 0.0708 l -0.0615,0.03566 9.8826,5.705595 v -0.0708 l 0.0615,-0.03566 z"
       style="fill:none;fill-rule:evenodd;stroke:#000000;stroke-width:0.705556"
       id="path373" />
    <path
       d="m 98.680798,85.317273 v -0.0708 l -0.06149,-0.03566 -0.0615,0.03566 v 0.0708 l 0.0615,0.03566 z"
       style="fill:none;fill-rule:evenodd;stroke:#000000;stroke-width:0.705556"
       id="path384" />
    <path
       d="m 98.680798,85.317273 -0.06149,0.03566 -0.0615,-0.03566 v 11.411706 l 0.0615,-0.03566 0.06149,0.03566 z"
       style="fill:none;fill-rule:evenodd;stroke:#000000;stroke-width:0.705556"
       id="path383" />
    <path
       d="m 108.56288,79.612195 -0.0615,-0.03566 v -0.07131 l -9.882087,5.705594 0.06149,0.03566 v 0.0708 z"
       style="fill:none;fill-rule:evenodd;stroke:#000000;stroke-width:0.705556"
       id="path382" />
    <path
       d="m 108.56288,79.612195 -9.882082,5.705078 v 11.411706 l 9.882082,5.705081 9.8826,-5.705081 V 85.317273 Z"
       style="fill:#ddff55;fill-rule:evenodd;stroke:#000000;stroke-width:0.705556"
       id="path381" />
    <path
       d="m 108.62489,79.505225 -0.062,-0.03566 -0.0615,0.03566 v 0.07131 l 0.0615,0.03566 0.062,-0.03566 z"
       style="fill:none;fill-rule:evenodd;stroke:#000000;stroke-width:0.705556"
       id="path380" />
    <path
       d="m 108.62489,79.505225 v 0.07131 l -0.062,0.03566 9.8826,5.705078 v -0.0708 l 0.0615,-0.03566 z"
       style="fill:none;fill-rule:evenodd;stroke:#000000;stroke-width:0.705556"
       id="path379" />
    <path
       d="m 98.619303,96.835433 0.06149,-0.03566 v -0.0708 l -0.06149,-0.03566 -0.0615,0.03566 v 0.0708 z"
       style="fill:none;fill-rule:evenodd;stroke:#000000;stroke-width:0.705556"
       id="path625" />
    <path
       d="m 108.50139,102.54051 v -0.0708 l 0.0615,-0.0357 -9.882082,-5.705081 v 0.0708 l -0.06149,0.03566 z"
       style="fill:none;fill-rule:evenodd;stroke:#000000;stroke-width:0.705556"
       id="path624" />
    <path
       d="m 88.736702,102.54051 -0.06149,0.0357 -0.06149,-0.0357 v 11.41171 l 0.06149,-0.0357 0.06149,0.0357 z"
       style="fill:none;fill-rule:evenodd;stroke:#000000;stroke-width:0.705556"
       id="path416" />
    <path
       d="m 88.736702,102.54051 v 11.41171 l 9.882601,5.70508 9.882087,-5.70508 v -11.41171 l -9.882087,-5.705077 z"
       style="fill:#ddff55;fill-rule:evenodd;stroke:#000000;stroke-width:0.705556"
       id="path415" />
    <path
       d="m 88.675208,102.43406 -0.06149,0.0357 v 0.0708 l 0.06149,0.0357 0.06149,-0.0357 v -0.0708 z"
       style="fill:none;fill-rule:evenodd;stroke:#000000;stroke-width:0.705556"
       id="path414" />
    <path
       d="m 88.675208,102.43406 0.06149,0.0357 v 0.0708 l 9.882601,-5.705077 -0.0615,-0.03566 v -0.0708 z"
       style="fill:none;fill-rule:evenodd;stroke:#000000;stroke-width:0.705556"
       id="path413" />
    <path
       d="m 78.793123,119.76427 v -0.0713 l -0.06201,-0.0356 -0.06149,0.0356 v 0.0713 l 0.06201,0.0357 z"
       style="fill:none;fill-rule:evenodd;stroke:#000000;stroke-width:0.705556"
       id="path422" />
    <path
       d="m 78.793123,119.76427 -0.06149,0.0357 -0.06201,-0.0357 v 11.41119 l 0.06201,-0.0357 0.06149,0.0357 z"
       style="fill:none;fill-rule:evenodd;stroke:#000000;stroke-width:0.705556"
       id="path421" />
    <path
       d="m 88.675208,114.05867 -0.06149,-0.0357 v -0.0708 l -9.882601,5.70508 0.06201,0.0356 v 0.0713 z"
       style="fill:none;fill-rule:evenodd;stroke:#000000;stroke-width:0.705556"
       id="path420" />
    <path
       d="m 88.675208,114.05867 -9.882085,5.7056 v 11.41119 l 9.882085,5.70559 9.8826,-5.70559 v -11.41119 z"
       style="fill:#ffeeaa;fill-rule:evenodd;stroke:#000000;stroke-width:0.705556"
       id="path419" />
    <path
       d="m 88.736702,113.95222 -0.06149,-0.0357 -0.06149,0.0357 v 0.0708 l 0.06149,0.0357 0.06149,-0.0357 z"
       style="fill:none;fill-rule:evenodd;stroke:#000000;stroke-width:0.705556"
       id="path418" />
    <path
       d="m 88.736702,113.95222 v 0.0708 l -0.06149,0.0357 9.8826,5.7056 v -0.0713 l 0.0615,-0.0356 z"
       style="fill:none;fill-rule:evenodd;stroke:#000000;stroke-width:0.705556"
       id="path417" />
    <path
       d="m 78.731112,131.28191 9.882601,5.70559 v -0.0708 l 0.06149,-0.0357 -9.882085,-5.70559 v 0.0708 z"
       style="fill:none;fill-rule:evenodd;stroke:#000000;stroke-width:0.705556"
       id="path446" />
    <path
       d="m 78.731112,131.28191 0.06201,-0.0357 v -0.0708 l -0.06149,-0.0357 -0.06201,0.0357 v 0.0708 z"
       style="fill:none;fill-rule:evenodd;stroke:#000000;stroke-width:0.705556"
       id="path445" />
    <path
       d="m 68.849028,136.9875 v 11.41119 l 9.882084,5.7056 9.882601,-5.7056 V 136.9875 l -9.882601,-5.70559 z"
       style="fill:#ffad79;fill-opacity:1;fill-rule:evenodd;stroke:#000000;stroke-width:0.705556"
       id="path444" />
    <path
       d="m 68.849028,136.9875 9.882084,-5.70559 -0.06149,-0.0357 v -0.0708 l -9.882084,5.70559 0.0615,0.0357 z"
       style="fill:none;fill-rule:evenodd;stroke:#000000;stroke-width:0.705556"
       id="path443" />
    <path
       d="m 68.726038,136.9875 v 11.41119 l 0.06149,-0.0356 0.0615,0.0356 V 136.9875 l -0.0615,0.0357 z"
       style="fill:none;fill-rule:evenodd;stroke:#000000;stroke-width:0.705556"
       id="path442" />
    <path
       d="m 68.726038,136.9875 0.06149,0.0357 0.0615,-0.0357 v -0.0708 l -0.0615,-0.0357 -0.06149,0.0357 z"
       style="fill:none;fill-rule:evenodd;stroke:#000000;stroke-width:0.705556"
       id="path441" />
    <path
       d="m 68.787533,148.50566 0.0615,-0.0357 v -0.0713 l -0.0615,-0.0356 -0.06149,0.0356 v 0.0713 z"
       style="fill:none;fill-rule:evenodd;stroke:#000000;stroke-width:0.705556"
       id="path460" />
    <path
       d="m 68.787533,148.50566 -0.06149,-0.0357 v -0.0713 l -9.944096,5.74126 v 0.0708 l 0.0615,0.0357 z"
       style="fill:none;fill-rule:evenodd;stroke:#000000;stroke-width:0.705556"
       id="path459" />
    <path
       d="m 78.669617,154.21074 v -0.0708 l 0.06149,-0.0357 -9.882084,-5.7056 v 0.0713 l -0.0615,0.0357 z"
       style="fill:none;fill-rule:evenodd;stroke:#000000;stroke-width:0.705556"
       id="path458" />
    <path
       d="m 78.669617,154.21074 -9.882084,-5.70508 -9.944096,5.74074 -0.0615,-0.0357 v 11.48251 l 9.944096,5.74073 v -0.0708 l 9.943579,-5.74125 z"
       style="fill:#ffaaaa;fill-rule:evenodd;stroke:#000000;stroke-width:0.705556"
       id="path457" />
    <path
       d="m 148.40024,45.058748 9.88261,5.705078 9.94357,-5.740734 0.0615,0.03566 V 33.576245 l -10.00507,-5.776391 -9.9441,5.740734 0.0615,0.03566 z"
       style="fill:#ff5555;fill-rule:evenodd;stroke:#000000;stroke-width:0.705556"
       id="path610" />
    <path
       d="m 148.27725,45.058748 0.0615,-0.03566 0.0615,0.03566 V 33.576245 l -0.0615,-0.03566 -0.0615,0.03566 z"
       style="fill:none;fill-rule:evenodd;stroke:#000000;stroke-width:0.705556"
       id="path608" />
    <path
       d="m 148.40024,45.058748 v 0.0708 l -0.0615,0.03566 9.8826,5.705595 v -0.07131 l 0.0615,-0.03566 z"
       style="fill:none;fill-rule:evenodd;stroke:#000000;stroke-width:0.705556"
       id="path611" />
    <path
       d="m 148.27725,45.058748 v 0.0708 l 0.0615,0.03566 0.0615,-0.03566 v -0.0708 l -0.0615,-0.03566 z"
       style="fill:none;fill-rule:evenodd;stroke:#000000;stroke-width:0.705556"
       id="path609" />
    <path
       d="m 138.39465,50.763826 0.062,0.03566 v 0.07131 l 9.88208,-5.705595 -0.0615,-0.03566 v -0.0708 z"
       style="fill:none;fill-rule:evenodd;stroke:#000000;stroke-width:0.705556"
       id="path607" />
    <path
       d="m 138.33316,50.870797 0.0615,0.03566 0.062,-0.03566 v -0.07131 l -0.062,-0.03566 -0.0615,0.03566 z"
       style="fill:none;fill-rule:evenodd;stroke:#000000;stroke-width:0.705556"
       id="path605" />
    <path
       d="m 138.33316,62.281986 0.0615,-0.03566 0.062,0.03566 V 50.870797 l -0.062,0.03566 -0.0615,-0.03566 z"
       style="fill:none;fill-rule:evenodd;stroke:#000000;stroke-width:0.705556"
       id="path602" />
    <path
       d="M 158.22135,62.281986 V 50.870797 l -9.8826,-5.705595 -9.88208,5.705595 v 11.411189 l 9.88208,5.705595 z"
       style="fill:#ffad79;fill-opacity:1;fill-rule:evenodd;stroke:#000000;stroke-width:0.705556"
       id="path586" />
    <path
       d="m 138.33316,62.281986 v 0.0708 l 0.0615,0.03566 0.062,-0.03566 v -0.0708 l -0.062,-0.03566 z"
       style="fill:none;fill-rule:evenodd;stroke:#000000;stroke-width:0.705556"
       id="path603" />
    <path
       d="m 128.45107,67.987581 0.0615,0.03566 v 0.0708 l 9.88208,-5.705595 -0.0615,-0.03566 v -0.0708 z"
       style="fill:none;fill-rule:evenodd;stroke:#000000;stroke-width:0.705556"
       id="path601" />
    <path
       d="m 128.38958,68.094035 0.0615,0.03566 0.0615,-0.03566 v -0.0708 l -0.0615,-0.03566 -0.0615,0.03566 z"
       style="fill:none;fill-rule:evenodd;stroke:#000000;stroke-width:0.705556"
       id="path600" />
    <path
       d="m 128.38958,79.505225 0.0615,-0.03566 0.0615,0.03566 v -11.41119 l -0.0615,0.03566 -0.0615,-0.03566 z"
       style="fill:none;fill-rule:evenodd;stroke:#000000;stroke-width:0.705556"
       id="path599" />
    <path
       d="m 148.27725,68.094035 -9.8826,-5.705595 -9.88208,5.705595 v 11.41119 l 9.88208,5.705594 9.8826,-5.705594 z"
       style="fill:#ffeeaa;fill-rule:evenodd;stroke:#000000;stroke-width:0.705556"
       id="path590" />
    <path
       d="m 148.33875,67.987581 -9.88208,-5.705595 v 0.0708 l -0.062,0.03566 9.8826,5.705595 v -0.0708 z"
       style="fill:none;fill-rule:evenodd;stroke:#000000;stroke-width:0.705556"
       id="path588" />
    <path
       d="m 118.56847,85.317273 v -0.0708 l -0.0615,-0.03566 -0.0615,0.03566 v 0.0708 l 0.0615,0.03566 z"
       style="fill:none;fill-rule:evenodd;stroke:#000000;stroke-width:0.705556"
       id="path617" />
    <path
       d="m 118.56847,85.317273 -0.0615,0.03566 -0.0615,-0.03566 v 11.411706 l 0.0615,-0.03566 0.0615,0.03566 z"
       style="fill:none;fill-rule:evenodd;stroke:#000000;stroke-width:0.705556"
       id="path616" />
    <path
       d="m 128.45107,79.612195 0.0615,-0.03566 v -0.07131 l -0.0615,-0.03566 -0.0615,0.03566 v 0.07131 z"
       style="fill:none;fill-rule:evenodd;stroke:#000000;stroke-width:0.705556"
       id="path598" />
    <path
       d="m 128.45107,79.612195 -0.0615,-0.03566 v -0.07131 l -9.8826,5.705594 0.0615,0.03566 v 0.0708 z"
       style="fill:none;fill-rule:evenodd;stroke:#000000;stroke-width:0.705556"
       id="path597" />
    <path
       d="m 138.33316,85.317273 v -0.0708 l 0.0615,-0.03566 -9.88208,-5.705594 v 0.07131 l -0.0615,0.03566 z"
       style="fill:none;fill-rule:evenodd;stroke:#000000;stroke-width:0.705556"
       id="path596" />
    <path
       d="m 138.33316,85.317273 -9.88209,-5.705078 -9.8826,5.705078 v 11.411706 l 9.8826,5.705081 9.88209,-5.705081 z"
       style="fill:#ddff55;fill-opacity:1;fill-rule:evenodd;stroke:#000000;stroke-width:0.705556"
       id="path595" />
    <path
       d="m 108.62489,102.54051 v -0.0708 l -0.062,-0.0357 -0.0615,0.0357 v 0.0708 l 0.0615,0.0357 z"
       style="fill:none;fill-rule:evenodd;stroke:#000000;stroke-width:0.705556"
       id="path623" />
    <path
       d="m 108.62489,102.54051 -0.062,0.0357 -0.0615,-0.0357 v 11.41171 l 0.0615,-0.0357 0.062,0.0357 z"
       style="fill:none;fill-rule:evenodd;stroke:#000000;stroke-width:0.705556"
       id="path622" />
    <path
       d="m 118.50698,96.835433 -0.0615,-0.03566 v -0.0708 l -9.8826,5.705077 0.062,0.0357 v 0.0708 z"
       style="fill:none;fill-rule:evenodd;stroke:#000000;stroke-width:0.705556"
       id="path621" />
    <path
       d="m 118.50698,96.835433 -9.88209,5.705077 v 11.41171 l 9.88209,5.70508 9.8826,-5.70508 v -11.41171 z"
       style="fill:#46ff4e;fill-opacity:1;fill-rule:evenodd;stroke:#000000;stroke-width:0.705556"
       id="path620" />
    <path
       d="m 118.56847,96.728979 -0.0615,-0.03566 -0.0615,0.03566 v 0.0708 l 0.0615,0.03566 0.0615,-0.03566 z"
       style="fill:none;fill-rule:evenodd;stroke:#000000;stroke-width:0.705556"
       id="path619" />
    <path
       d="m 118.56847,96.728979 v 0.0708 l -0.0615,0.03566 9.8826,5.705081 v -0.0708 l 0.0615,-0.0357 z"
       style="fill:none;fill-rule:evenodd;stroke:#000000;stroke-width:0.705556"
       id="path618" />
    <path
       d="m 98.680798,119.76427 v -0.0713 l -0.06149,-0.0356 -0.0615,0.0356 v 0.0713 l 0.0615,0.0357 z"
       style="fill:none;fill-rule:evenodd;stroke:#000000;stroke-width:0.705556"
       id="path631" />
    <path
       d="m 98.680798,119.76427 -0.06149,0.0357 -0.0615,-0.0357 v 11.41119 l 0.0615,-0.0357 0.06149,0.0357 z"
       style="fill:none;fill-rule:evenodd;stroke:#000000;stroke-width:0.705556"
       id="path630" />
    <path
       d="m 108.56288,114.05867 -0.0615,-0.0357 v -0.0708 l -9.882087,5.70508 0.06149,0.0356 v 0.0713 z"
       style="fill:none;fill-rule:evenodd;stroke:#000000;stroke-width:0.705556"
       id="path629" />
    <path
       d="m 108.56288,114.05867 -9.882082,5.7056 v 11.41119 l 9.882082,5.70559 9.8826,-5.70559 v -11.41119 z"
       style="fill:#ddff55;fill-rule:evenodd;stroke:#000000;stroke-width:0.705556"
       id="path628" />
    <path
       d="m 108.62489,113.95222 -0.062,-0.0357 -0.0615,0.0357 v 0.0708 l 0.0615,0.0357 0.062,-0.0357 z"
       style="fill:none;fill-rule:evenodd;stroke:#000000;stroke-width:0.705556"
       id="path627" />
    <path
       d="m 108.62489,113.95222 v 0.0708 l -0.062,0.0357 9.8826,5.7056 v -0.0713 l 0.0615,-0.0356 z"
       style="fill:none;fill-rule:evenodd;stroke:#000000;stroke-width:0.705556"
       id="path626" />
    <path
       d="m 98.680798,131.17546 -0.06149,-0.0357 -0.0615,0.0357 v 0.0708 l 0.0615,0.0357 0.06149,-0.0357 z"
       style="fill:none;fill-rule:evenodd;stroke:#000000;stroke-width:0.705556"
       id="path633" />
    <path
       d="m 98.680798,131.17546 v 0.0708 l -0.06149,0.0357 9.882082,5.70559 v -0.0708 l 0.0615,-0.0357 z"
       style="fill:none;fill-rule:evenodd;stroke:#000000;stroke-width:0.705556"
       id="path632" />
    <path
       d="m 88.736702,136.9875 -0.06149,0.0357 -0.06149,-0.0357 v 11.41119 l 0.06149,-0.0356 0.06149,0.0356 z"
       style="fill:none;fill-rule:evenodd;stroke:#000000;stroke-width:0.705556"
       id="path450" />
    <path
       d="m 88.736702,136.9875 v 11.41119 l 9.882601,5.7056 9.882087,-5.7056 V 136.9875 l -9.882087,-5.70559 z"
       style="fill:#ffeeaa;fill-rule:evenodd;stroke:#000000;stroke-width:0.705556"
       id="path449" />
    <path
       d="m 88.675208,136.88105 -0.06149,0.0357 v 0.0708 l 0.06149,0.0357 0.06149,-0.0357 v -0.0708 z"
       style="fill:none;fill-rule:evenodd;stroke:#000000;stroke-width:0.705556"
       id="path448" />
    <path
       d="m 88.675208,136.88105 0.06149,0.0357 v 0.0708 l 9.882601,-5.70559 -0.0615,-0.0357 v -0.0708 z"
       style="fill:none;fill-rule:evenodd;stroke:#000000;stroke-width:0.705556"
       id="path447" />
    <path
       d="m 78.793123,154.21074 v -0.0708 l -0.06201,-0.0357 -0.06149,0.0357 v 0.0708 l 0.06201,0.0357 z"
       style="fill:none;fill-rule:evenodd;stroke:#000000;stroke-width:0.705556"
       id="path456" />
    <path
       d="m 78.793123,154.21074 -0.06149,0.0357 -0.06201,-0.0357 v 11.41119 l 0.06201,-0.0357 0.06149,0.0357 z"
       style="fill:none;fill-rule:evenodd;stroke:#000000;stroke-width:0.705556"
       id="path455" />
    <path
       d="m 88.675208,148.50566 -0.06149,-0.0357 v -0.0713 l -9.882601,5.7056 0.06201,0.0357 v 0.0708 z"
       style="fill:none;fill-rule:evenodd;stroke:#000000;stroke-width:0.705556"
       id="path454" />
    <path
       d="m 88.675208,148.50566 -9.882085,5.70508 v 11.41119 l 9.882085,5.7056 9.8826,-5.7056 v -11.41119 z"
       style="fill:#ffad79;fill-opacity:1;fill-rule:evenodd;stroke:#000000;stroke-width:0.705556"
       id="path453" />
    <path
       d="m 88.736702,148.39869 -0.06149,-0.0356 -0.06149,0.0356 v 0.0713 l 0.06149,0.0357 0.06149,-0.0357 z"
       style="fill:none;fill-rule:evenodd;stroke:#000000;stroke-width:0.705556"
       id="path452" />
    <path
       d="m 88.736702,148.39869 v 0.0713 l -0.06149,0.0357 9.8826,5.70508 v -0.0708 l 0.0615,-0.0357 z"
       style="fill:none;fill-rule:evenodd;stroke:#000000;stroke-width:0.705556"
       id="path451" />
    <path
       d="m 78.731112,165.7289 -9.943579,5.74074 -0.06149,-0.0357 v 11.4825 l 10.00559,5.77691 9.94358,-5.74125 -0.06149,-0.0357 v -11.4825 z"
       style="fill:#ff5555;fill-rule:evenodd;stroke:#000000;stroke-width:0.705556"
       id="path464" />
    <path
       d="m 78.731112,165.7289 9.882601,5.70508 v -0.0708 l 0.06149,-0.0357 -9.882085,-5.7056 v 0.0713 z"
       style="fill:none;fill-rule:evenodd;stroke:#000000;stroke-width:0.705556"
       id="path463" />
    <path
       d="m 78.669617,165.62193 -9.943579,5.74125 v 0.0708 l 0.06149,0.0357 9.943579,-5.74074 -0.06149,-0.0357 z"
       style="fill:none;fill-rule:evenodd;stroke:#000000;stroke-width:0.705556"
       id="path462" />
    <path
       d="m 78.669617,165.62193 v 0.0713 l 0.06149,0.0357 0.06201,-0.0357 v -0.0713 l -0.06149,-0.0357 z"
       style="fill:none;fill-rule:evenodd;stroke:#000000;stroke-width:0.705556"
       id="path461" />
    <path
       d="m 158.28285,50.763826 -0.0615,0.03566 v 0.07131 l 0.0615,0.03566 0.0615,-0.03566 v -0.07131 z"
       style="fill:none;fill-rule:evenodd;stroke:#000000;stroke-width:0.705556"
       id="path613" />
    <path
       d="m 158.28285,50.763826 0.0615,0.03566 v 0.07131 l 9.94358,-5.741252 v -0.0708 l -0.0615,-0.03566 z"
       style="fill:none;fill-rule:evenodd;stroke:#000000;stroke-width:0.705556"
       id="path612" />
    <path
       d="M 158.34434,62.281986 V 50.870797 l -0.0615,0.03566 -0.0615,-0.03566 v 11.411189 l 0.0615,-0.03566 z"
       style="fill:none;fill-rule:evenodd;stroke:#000000;stroke-width:0.705556"
       id="path584" />
    <path
       d="m 168.22642,67.987581 9.9441,-5.741251 0.0615,0.03566 V 50.799483 l -9.94409,-5.740735 v 0.0708 l -9.94358,5.741252 v 11.411189 z"
       style="fill:#ffaaaa;fill-rule:evenodd;stroke:#000000;stroke-width:0.705556"
       id="path582" />
    <path
       d="m 148.27725,68.094035 v 11.41119 l 0.0615,-0.03566 0.0615,0.03566 v -11.41119 l -0.0615,0.03566 z"
       style="fill:none;fill-rule:evenodd;stroke:#000000;stroke-width:0.705556"
       id="path589" />
    <path
       d="m 148.33875,67.987581 -0.0615,0.03566 v 0.0708 l 0.0615,0.03566 0.0615,-0.03566 v -0.0708 z"
       style="fill:none;fill-rule:evenodd;stroke:#000000;stroke-width:0.705556"
       id="path587" />
    <path
       d="m 158.22135,62.281986 -9.8826,5.705595 0.0615,0.03566 v 0.0708 l 9.88261,-5.705595 -0.0615,-0.03566 z"
       style="fill:none;fill-rule:evenodd;stroke:#000000;stroke-width:0.705556"
       id="path585" />
    <path
       d="m 158.34434,62.281986 -0.0615,-0.03566 -0.0615,0.03566 v 0.0708 l 0.0615,0.03566 0.0615,-0.03566 z"
       style="fill:none;fill-rule:evenodd;stroke:#000000;stroke-width:0.705556"
       id="path583" />
    <path
       d="m 168.22642,67.987581 -9.88208,-5.705595 v 0.0708 l -0.0615,0.03566 9.88208,5.705595 v -0.0708 z"
       style="fill:none;fill-rule:evenodd;stroke:#000000;stroke-width:0.705556"
       id="path581" />
    <path
       d="m 158.28285,85.210819 9.88208,-5.705594 v -11.41119 l -9.88208,-5.705595 -9.88261,5.705595 v 11.41119 z"
       style="fill:#ffad79;fill-opacity:1;fill-rule:evenodd;stroke:#000000;stroke-width:0.705556"
       id="path571" />
    <path
       d="m 138.45667,85.317273 v -0.0708 l -0.062,-0.03566 -0.0615,0.03566 v 0.0708 l 0.0615,0.03566 z"
       style="fill:none;fill-rule:evenodd;stroke:#000000;stroke-width:0.705556"
       id="path594" />
    <path
       d="m 138.45667,85.317273 -0.062,0.03566 -0.0615,-0.03566 v 11.411706 l 0.0615,-0.03566 0.062,0.03566 z"
       style="fill:none;fill-rule:evenodd;stroke:#000000;stroke-width:0.705556"
       id="path593" />
    <path
       d="m 148.27725,79.505225 -9.8826,5.705594 0.062,0.03566 v 0.0708 l 9.88208,-5.705078 -0.0615,-0.03566 z"
       style="fill:none;fill-rule:evenodd;stroke:#000000;stroke-width:0.705556"
       id="path592" />
    <path
       d="m 148.27725,79.505225 v 0.07131 l 0.0615,0.03566 0.0615,-0.03566 v -0.07131 l -0.0615,-0.03566 z"
       style="fill:none;fill-rule:evenodd;stroke:#000000;stroke-width:0.705556"
       id="path591" />
    <path
       d="m 158.22135,85.317273 v -0.0708 l 0.0615,-0.03566 -9.88261,-5.705594 v 0.07131 l -0.0615,0.03566 z"
       style="fill:none;fill-rule:evenodd;stroke:#000000;stroke-width:0.705556"
       id="path569" />
    <path
       d="M 158.22135,96.728979 V 85.317273 l -9.8826,-5.705078 -9.88208,5.705078 v 11.411706 l 9.88208,5.705081 z"
       style="fill:#ffeeaa;fill-rule:evenodd;stroke:#000000;stroke-width:0.705556"
       id="path567" />
    <path
       d="m 128.51257,102.54051 v -0.0708 l -0.0615,-0.0357 -0.0615,0.0357 v 0.0708 l 0.0615,0.0357 z"
       style="fill:none;fill-rule:evenodd;stroke:#000000;stroke-width:0.705556"
       id="path652" />
    <path
       d="m 138.39465,96.835433 0.062,-0.03566 v -0.0708 l -0.062,-0.03566 -0.0615,0.03566 v 0.0708 z"
       style="fill:none;fill-rule:evenodd;stroke:#000000;stroke-width:0.705556"
       id="path651" />
    <path
       d="m 138.39465,96.835433 -0.0615,-0.03566 v -0.0708 l -9.88209,5.705077 0.0615,0.0357 v 0.0708 z"
       style="fill:none;fill-rule:evenodd;stroke:#000000;stroke-width:0.705556"
       id="path650" />
    <path
       d="m 148.27725,102.54051 v -0.0708 l 0.0615,-0.0357 -9.88208,-5.705081 v 0.0708 l -0.062,0.03566 z"
       style="fill:none;fill-rule:evenodd;stroke:#000000;stroke-width:0.705556"
       id="path648" />
    <path
       d="m 128.51257,113.95222 9.88208,5.70508 9.8826,-5.70508 v -11.41171 l -9.8826,-5.705077 -9.88208,5.705077 z"
       style="fill:#ddff55;fill-opacity:1;fill-rule:evenodd;stroke:#000000;stroke-width:0.705556;stroke-dasharray:none;stroke-opacity:1;paint-order:normal"
       id="path642" />
    <path
       d="m 128.38958,113.95222 0.0615,-0.0357 0.0615,0.0357 v -11.41171 l -0.0615,0.0357 -0.0615,-0.0357 z"
       style="fill:none;fill-rule:evenodd;stroke:#000000;stroke-width:0.705556"
       id="path640" />
    <path
       d="m 128.51257,113.95222 v 0.0708 l -0.0615,0.0357 9.88209,5.7056 v -0.0713 l 0.0615,-0.0356 z"
       style="fill:none;fill-rule:evenodd;stroke:#000000;stroke-width:0.705556"
       id="path643" />
    <path
       d="m 128.38958,113.95222 v 0.0708 l 0.0615,0.0357 0.0615,-0.0357 v -0.0708 l -0.0615,-0.0357 z"
       style="fill:none;fill-rule:evenodd;stroke:#000000;stroke-width:0.705556"
       id="path641" />
    <path
       d="m 118.50698,119.6573 0.0615,0.0356 v 0.0713 l 9.8826,-5.7056 -0.0615,-0.0357 v -0.0708 z"
       style="fill:none;fill-rule:evenodd;stroke:#000000;stroke-width:0.705556"
       id="path639" />
    <path
       d="m 118.44548,119.76427 0.0615,0.0357 0.0615,-0.0357 v -0.0713 l -0.0615,-0.0356 -0.0615,0.0356 z"
       style="fill:none;fill-rule:evenodd;stroke:#000000;stroke-width:0.705556"
       id="path638" />
    <path
       d="m 118.44548,131.17546 0.0615,-0.0357 0.0615,0.0357 v -11.41119 l -0.0615,0.0357 -0.0615,-0.0357 z"
       style="fill:none;fill-rule:evenodd;stroke:#000000;stroke-width:0.705556"
       id="path636" />
    <path
       d="m 128.45107,136.88105 9.88209,-5.70559 v -11.41119 l -9.88209,-5.7056 -9.8826,5.7056 v 11.41119 z"
       style="fill:#ddff55;fill-rule:evenodd;stroke:#000000;stroke-width:0.705556"
       id="path505" />
    <path
       d="m 118.44548,131.17546 v 0.0708 l 0.0615,0.0357 0.0615,-0.0357 v -0.0708 l -0.0615,-0.0357 z"
       style="fill:none;fill-rule:evenodd;stroke:#000000;stroke-width:0.705556"
       id="path637" />
    <path
       d="m 108.56288,136.88105 -0.0615,0.0357 v 0.0708 l 0.0615,0.0357 0.062,-0.0357 v -0.0708 z"
       style="fill:none;fill-rule:evenodd;stroke:#000000;stroke-width:0.705556"
       id="path635" />
    <path
       d="m 108.56288,136.88105 0.062,0.0357 v 0.0708 l 9.88209,-5.70559 -0.0615,-0.0357 v -0.0708 z"
       style="fill:none;fill-rule:evenodd;stroke:#000000;stroke-width:0.705556"
       id="path634" />
    <path
       d="m 128.38958,136.9875 v -0.0708 l 0.0615,-0.0357 -9.8826,-5.70559 v 0.0708 l -0.0615,0.0357 z"
       style="fill:none;fill-rule:evenodd;stroke:#000000;stroke-width:0.705556"
       id="path503" />
    <path
       d="m 108.62489,148.39869 9.88209,5.7056 9.8826,-5.7056 V 136.9875 l -9.8826,-5.70559 -9.88209,5.70559 z"
       style="fill:#ffeeaa;fill-rule:evenodd;stroke:#000000;stroke-width:0.705556"
       id="path477" />
    <path
       d="m 108.50139,148.39869 0.0615,-0.0356 0.062,0.0356 V 136.9875 l -0.062,0.0357 -0.0615,-0.0357 z"
       style="fill:none;fill-rule:evenodd;stroke:#000000;stroke-width:0.705556"
       id="path475" />
    <path
       d="m 108.62489,148.39869 v 0.0713 l -0.062,0.0357 9.8826,5.70508 v -0.0708 l 0.0615,-0.0357 z"
       style="fill:none;fill-rule:evenodd;stroke:#000000;stroke-width:0.705556"
       id="path478" />
    <path
       d="m 108.50139,148.39869 v 0.0713 l 0.0615,0.0357 0.062,-0.0357 v -0.0713 l -0.062,-0.0356 z"
       style="fill:none;fill-rule:evenodd;stroke:#000000;stroke-width:0.705556"
       id="path476" />
    <path
       d="m 98.680798,154.21074 9.882082,-5.70508 -0.0615,-0.0357 v -0.0713 l -9.882087,5.7056 0.06149,0.0357 z"
       style="fill:none;fill-rule:evenodd;stroke:#000000;stroke-width:0.705556"
       id="path474" />
    <path
       d="m 98.680798,154.21074 v -0.0708 l -0.06149,-0.0357 -0.0615,0.0357 v 0.0708 l 0.0615,0.0357 z"
       style="fill:none;fill-rule:evenodd;stroke:#000000;stroke-width:0.705556"
       id="path473" />
    <path
       d="m 98.680798,165.62193 9.882082,5.7056 9.8826,-5.7056 v -11.41119 l -9.8826,-5.70508 -9.882082,5.70508 z"
       style="fill:#ffad79;fill-opacity:1;fill-rule:evenodd;stroke:#000000;stroke-width:0.705556"
       id="path472" />
    <path
       d="m 98.680798,165.62193 v -11.41119 l -0.06149,0.0357 -0.0615,-0.0357 v 11.41119 l 0.0615,-0.0357 z"
       style="fill:none;fill-rule:evenodd;stroke:#000000;stroke-width:0.705556"
       id="path471" />
    <path
       d="m 98.619303,165.7289 9.882087,5.70508 v -0.0708 l 0.0615,-0.0357 -9.882082,-5.7056 v 0.0713 z"
       style="fill:none;fill-rule:evenodd;stroke:#000000;stroke-width:0.705556"
       id="path470" />
    <path
       d="m 98.619303,165.7289 0.06149,-0.0357 v -0.0713 l -0.06149,-0.0357 -0.0615,0.0357 v 0.0713 z"
       style="fill:none;fill-rule:evenodd;stroke:#000000;stroke-width:0.705556"
       id="path469" />
    <path
       d="m 88.736702,171.43398 v 11.4825 l -0.06149,0.0357 9.944095,5.74125 9.943573,-5.74125 -0.0615,-0.0357 v -11.4825 l -9.882083,-5.70508 z"
       style="fill:#ffaaaa;fill-rule:evenodd;stroke:#000000;stroke-width:0.705556"
       id="path468" />
    <path
       d="m 88.736702,171.43398 9.882601,-5.70508 -0.0615,-0.0357 v -0.0713 l -9.8826,5.7056 0.06149,0.0357 z"
       style="fill:none;fill-rule:evenodd;stroke:#000000;stroke-width:0.705556"
       id="path467" />
    <path
       d="m 88.613713,171.43398 v 11.4825 l 0.06149,0.0357 0.06149,-0.0357 v -11.4825 l -0.06149,0.0357 z"
       style="fill:none;fill-rule:evenodd;stroke:#000000;stroke-width:0.705556"
       id="path466" />
    <path
       d="m 88.613713,171.43398 0.06149,0.0357 0.06149,-0.0357 v -0.0708 l -0.06149,-0.0357 -0.06149,0.0357 z"
       style="fill:none;fill-rule:evenodd;stroke:#000000;stroke-width:0.705556"
       id="path465" />
    <path
       d="m 168.28792,68.094035 9.94409,-5.741252 v -0.0708 l -0.0615,-0.03566 -9.9441,5.741251 0.0615,0.03566 z"
       style="fill:none;fill-rule:evenodd;stroke:#000000;stroke-width:0.705556"
       id="path580" />
    <path
       d="m 168.28792,68.094035 v -0.0708 l -0.0615,-0.03566 -0.0615,0.03566 v 0.0708 l 0.0615,0.03566 z"
       style="fill:none;fill-rule:evenodd;stroke:#000000;stroke-width:0.705556"
       id="path579" />
    <path
       d="m 168.28792,79.505225 9.8826,5.705594 9.9441,-5.741251 0.0615,0.03566 v -11.48199 l -9.9441,-5.741252 v 0.0708 l -9.94409,5.741252 z"
       style="fill:#ffaaaa;fill-rule:evenodd;stroke:#000000;stroke-width:0.705556"
       id="path575" />
    <path
       d="m 168.16493,79.505225 0.0615,-0.03566 0.0615,0.03566 v -11.41119 l -0.0615,0.03566 -0.0615,-0.03566 z"
       style="fill:none;fill-rule:evenodd;stroke:#000000;stroke-width:0.705556"
       id="path573" />
    <path
       d="m 168.28792,79.505225 v 0.07131 l -0.0615,0.03566 9.88261,5.705078 v -0.0708 l 0.0615,-0.03566 z"
       style="fill:none;fill-rule:evenodd;stroke:#000000;stroke-width:0.705556"
       id="path576" />
    <path
       d="m 168.16493,79.505225 v 0.07131 l 0.0615,0.03566 0.0615,-0.03566 v -0.07131 l -0.0615,-0.03566 z"
       style="fill:none;fill-rule:evenodd;stroke:#000000;stroke-width:0.705556"
       id="path574" />
    <path
       d="m 158.28285,85.210819 0.0615,0.03566 v 0.0708 l 9.88208,-5.705078 -0.0615,-0.03566 v -0.07131 z"
       style="fill:none;fill-rule:evenodd;stroke:#000000;stroke-width:0.705556"
       id="path572" />
    <path
       d="m 158.22135,85.317273 0.0615,0.03566 0.0615,-0.03566 v -0.0708 l -0.0615,-0.03566 -0.0615,0.03566 z"
       style="fill:none;fill-rule:evenodd;stroke:#000000;stroke-width:0.705556"
       id="path570" />
    <path
       d="m 158.22135,96.728979 0.0615,-0.03566 0.0615,0.03566 V 85.317273 l -0.0615,0.03566 -0.0615,-0.03566 z"
       style="fill:none;fill-rule:evenodd;stroke:#000000;stroke-width:0.705556"
       id="path568" />
    <path
       d="M 178.10903,96.728979 V 85.317273 l -9.88261,-5.705078 -9.88208,5.705078 v 11.411706 l 9.88208,5.705081 z"
       style="fill:#ffad79;fill-opacity:1;fill-rule:evenodd;stroke:#000000;stroke-width:0.705556"
       id="path562" />
    <path
       d="m 148.27725,102.54051 0.0615,0.0357 0.0615,-0.0357 v -0.0708 l -0.0615,-0.0357 -0.0615,0.0357 z"
       style="fill:none;fill-rule:evenodd;stroke:#000000;stroke-width:0.705556"
       id="path649" />
    <path
       d="m 148.27725,113.95222 0.0615,-0.0357 0.0615,0.0357 v -11.41171 l -0.0615,0.0357 -0.0615,-0.0357 z"
       style="fill:none;fill-rule:evenodd;stroke:#000000;stroke-width:0.705556"
       id="path646" />
    <path
       d="m 158.28285,96.835433 0.0615,-0.03566 v -0.0708 l -0.0615,-0.03566 -0.0615,0.03566 v 0.0708 z"
       style="fill:none;fill-rule:evenodd;stroke:#000000;stroke-width:0.705556"
       id="path566" />
    <path
       d="m 158.28285,96.835433 -0.0615,-0.03566 v -0.0708 l -9.8826,5.705077 0.0615,0.0357 v 0.0708 z"
       style="fill:none;fill-rule:evenodd;stroke:#000000;stroke-width:0.705556"
       id="path565" />
    <path
       d="m 168.22642,102.43406 -9.88208,-5.705081 v 0.0708 l -0.0615,0.03566 9.88208,5.705081 v -0.0708 z"
       style="fill:none;fill-rule:evenodd;stroke:#000000;stroke-width:0.705556"
       id="path564" />
    <path
       d="m 158.28285,119.6573 9.88208,-5.70508 v -11.41171 l -9.88208,-5.705077 -9.88261,5.705077 v 11.41171 z"
       style="fill:#ffeeaa;fill-rule:evenodd;stroke:#000000;stroke-width:0.705556"
       id="path539" />
    <path
       d="m 148.27725,113.95222 v 0.0708 l 0.0615,0.0357 0.0615,-0.0357 v -0.0708 l -0.0615,-0.0357 z"
       style="fill:none;fill-rule:evenodd;stroke:#000000;stroke-width:0.705556"
       id="path647" />
    <path
       d="m 138.39465,119.6573 -0.0615,0.0356 v 0.0713 l 0.0615,0.0357 0.062,-0.0357 v -0.0713 z"
       style="fill:none;fill-rule:evenodd;stroke:#000000;stroke-width:0.705556"
       id="path645" />
    <path
       d="m 138.39465,119.6573 0.062,0.0356 v 0.0713 l 9.88208,-5.7056 -0.0615,-0.0357 v -0.0708 z"
       style="fill:none;fill-rule:evenodd;stroke:#000000;stroke-width:0.705556"
       id="path644" />
    <path
       d="m 158.22135,119.76427 v -0.0713 l 0.0615,-0.0356 -9.88261,-5.70508 v 0.0708 l -0.0615,0.0357 z"
       style="fill:none;fill-rule:evenodd;stroke:#000000;stroke-width:0.705556"
       id="path537" />
    <path
       d="m 138.45667,131.17546 9.88208,5.70559 9.8826,-5.70559 v -11.41119 l -9.8826,-5.7056 -9.88208,5.7056 z"
       style="fill:#ffeeaa;fill-rule:evenodd;stroke:#000000;stroke-width:0.705556"
       id="path509" />
    <path
       d="m 138.33316,131.17546 0.0615,-0.0357 0.062,0.0357 v -11.41119 l -0.062,0.0357 -0.0615,-0.0357 z"
       style="fill:none;fill-rule:evenodd;stroke:#000000;stroke-width:0.705556"
       id="path507" />
    <path
       d="m 138.45667,131.17546 v 0.0708 l -0.062,0.0357 9.8826,5.70559 v -0.0708 l 0.0615,-0.0357 z"
       style="fill:none;fill-rule:evenodd;stroke:#000000;stroke-width:0.705556"
       id="path510" />
    <path
       d="m 138.33316,131.17546 v 0.0708 l 0.0615,0.0357 0.062,-0.0357 v -0.0708 l -0.062,-0.0357 z"
       style="fill:none;fill-rule:evenodd;stroke:#000000;stroke-width:0.705556"
       id="path508" />
    <path
       d="m 128.45107,136.88105 0.0615,0.0357 v 0.0708 l 9.88208,-5.70559 -0.0615,-0.0357 v -0.0708 z"
       style="fill:none;fill-rule:evenodd;stroke:#000000;stroke-width:0.705556"
       id="path506" />
    <path
       d="m 128.38958,136.9875 0.0615,0.0357 0.0615,-0.0357 v -0.0708 l -0.0615,-0.0357 -0.0615,0.0357 z"
       style="fill:none;fill-rule:evenodd;stroke:#000000;stroke-width:0.705556"
       id="path504" />
    <path
       d="M 128.51257,148.39869 V 136.9875 l -0.0615,0.0357 -0.0615,-0.0357 v 11.41119 l 0.0615,-0.0356 z"
       style="fill:none;fill-rule:evenodd;stroke:#000000;stroke-width:0.705556"
       id="path502" />
    <path
       d="m 138.39465,154.10429 9.8826,-5.7056 V 136.9875 l -9.8826,-5.70559 -9.88208,5.70559 v 11.41119 z"
       style="fill:#ffeeaa;fill-rule:evenodd;stroke:#000000;stroke-width:0.705556"
       id="path500" />
    <path
       d="m 128.51257,148.39869 -0.0615,-0.0356 -0.0615,0.0356 v 0.0713 l 0.0615,0.0357 0.0615,-0.0357 z"
       style="fill:none;fill-rule:evenodd;stroke:#000000;stroke-width:0.705556"
       id="path501" />
    <path
       d="m 138.39465,154.10429 -9.88208,-5.7056 v 0.0713 l -0.0615,0.0357 9.88209,5.70508 v -0.0708 z"
       style="fill:none;fill-rule:evenodd;stroke:#000000;stroke-width:0.705556"
       id="path499" />
    <path
       d="m 118.56847,154.21074 -0.0615,0.0357 -0.0615,-0.0357 v 11.41119 l 0.0615,-0.0357 0.0615,0.0357 z"
       style="fill:none;fill-rule:evenodd;stroke:#000000;stroke-width:0.705556"
       id="path482" />
    <path
       d="m 118.56847,154.21074 v 11.41119 l 9.8826,5.7056 9.88209,-5.7056 v -11.41119 l -9.88209,-5.70508 z"
       style="fill:#ffad79;fill-opacity:1;fill-rule:evenodd;stroke:#000000;stroke-width:0.705556"
       id="path481" />
    <path
       d="m 118.50698,154.10429 -0.0615,0.0357 v 0.0708 l 0.0615,0.0357 0.0615,-0.0357 v -0.0708 z"
       style="fill:none;fill-rule:evenodd;stroke:#000000;stroke-width:0.705556"
       id="path480" />
    <path
       d="m 118.50698,154.10429 0.0615,0.0357 v 0.0708 l 9.8826,-5.70508 -0.0615,-0.0357 v -0.0713 z"
       style="fill:none;fill-rule:evenodd;stroke:#000000;stroke-width:0.705556"
       id="path479" />
    <path
       d="m 108.62489,171.43398 v -0.0708 l -0.062,-0.0357 -0.0615,0.0357 v 0.0708 l 0.0615,0.0357 z"
       style="fill:none;fill-rule:evenodd;stroke:#000000;stroke-width:0.705556"
       id="path488" />
    <path
       d="m 108.62489,171.43398 -0.062,0.0357 -0.0615,-0.0357 v 11.4825 l 0.0615,0.0357 0.062,-0.0357 z"
       style="fill:none;fill-rule:evenodd;stroke:#000000;stroke-width:0.705556"
       id="path487" />
    <path
       d="m 118.50698,165.7289 -0.0615,-0.0357 v -0.0713 l -9.8826,5.7056 0.062,0.0357 v 0.0708 z"
       style="fill:none;fill-rule:evenodd;stroke:#000000;stroke-width:0.705556"
       id="path486" />
    <path
       d="m 118.50698,165.7289 -9.88209,5.70508 v 11.4825 l -0.062,0.0357 9.9441,5.74125 9.94409,-5.74125 -0.0615,-0.0357 v -11.4825 z"
       style="fill:#ffaaaa;fill-rule:evenodd;stroke:#000000;stroke-width:0.705556"
       id="path485" />
    <path
       d="m 118.56847,165.62193 -0.0615,-0.0357 -0.0615,0.0357 v 0.0713 l 0.0615,0.0357 0.0615,-0.0357 z"
       style="fill:none;fill-rule:evenodd;stroke:#000000;stroke-width:0.705556"
       id="path484" />
    <path
       d="m 118.56847,165.62193 v 0.0713 l -0.0615,0.0357 9.8826,5.70508 v -0.0708 l 0.0615,-0.0357 z"
       style="fill:none;fill-rule:evenodd;stroke:#000000;stroke-width:0.705556"
       id="path483" />
    <path
       d="m 178.17052,85.210819 -0.0615,0.03566 v 0.0708 l 0.0615,0.03566 0.0615,-0.03566 v -0.0708 z"
       style="fill:none;fill-rule:evenodd;stroke:#000000;stroke-width:0.705556"
       id="path578" />
    <path
       d="m 178.17052,85.210819 0.0615,0.03566 v 0.0708 l 9.9441,-5.740735 v -0.07131 l -0.0615,-0.03566 z"
       style="fill:none;fill-rule:evenodd;stroke:#000000;stroke-width:0.705556"
       id="path577" />
    <path
       d="M 178.23201,96.728979 V 85.317273 l -0.0615,0.03566 -0.0615,-0.03566 v 11.411706 l 0.0615,-0.03566 z"
       style="fill:none;fill-rule:evenodd;stroke:#000000;stroke-width:0.705556"
       id="path560" />
    <path
       d="m 188.11462,102.43406 9.94357,-5.740737 0.0615,0.03566 V 85.246476 l -9.94358,-5.741251 v 0.07131 l -9.9441,5.740735 v 11.411706 z"
       style="fill:#ffaaaa;fill-rule:evenodd;stroke:#000000;stroke-width:0.705556"
       id="path558" />
    <path
       d="m 168.22642,102.43406 -0.0615,0.0357 v 0.0708 l 0.0615,0.0357 0.0615,-0.0357 v -0.0708 z"
       style="fill:none;fill-rule:evenodd;stroke:#000000;stroke-width:0.705556"
       id="path563" />
    <path
       d="m 178.10903,96.728979 -9.88261,5.705081 0.0615,0.0357 v 0.0708 l 9.8826,-5.705077 -0.0615,-0.03566 z"
       style="fill:none;fill-rule:evenodd;stroke:#000000;stroke-width:0.705556"
       id="path561" />
    <path
       d="m 178.23201,96.728979 -0.0615,-0.03566 -0.0615,0.03566 v 0.0708 l 0.0615,0.03566 0.0615,-0.03566 z"
       style="fill:none;fill-rule:evenodd;stroke:#000000;stroke-width:0.705556"
       id="path559" />
    <path
       d="m 188.11462,102.43406 -9.88261,-5.705081 v 0.0708 l -0.0615,0.03566 9.8826,5.705081 v -0.0708 z"
       style="fill:none;fill-rule:evenodd;stroke:#000000;stroke-width:0.705556"
       id="path557" />
    <path
       d="m 168.28792,113.95222 9.8826,5.70508 9.8826,-5.70508 v -11.41171 l -9.8826,-5.705077 -9.8826,5.705077 z"
       style="fill:#ffad79;fill-opacity:1;fill-rule:evenodd;stroke:#000000;stroke-width:0.705556"
       id="path543" />
    <path
       d="m 168.16493,113.95222 0.0615,-0.0357 0.0615,0.0357 v -11.41171 l -0.0615,0.0357 -0.0615,-0.0357 z"
       style="fill:none;fill-rule:evenodd;stroke:#000000;stroke-width:0.705556"
       id="path541" />
    <path
       d="m 168.28792,113.95222 v 0.0708 l -0.0615,0.0357 9.88261,5.7056 v -0.0713 l 0.0615,-0.0356 z"
       style="fill:none;fill-rule:evenodd;stroke:#000000;stroke-width:0.705556"
       id="path544" />
    <path
       d="m 168.16493,113.95222 v 0.0708 l 0.0615,0.0357 0.0615,-0.0357 v -0.0708 l -0.0615,-0.0357 z"
       style="fill:none;fill-rule:evenodd;stroke:#000000;stroke-width:0.705556"
       id="path542" />
    <path
       d="m 158.28285,119.6573 0.0615,0.0356 v 0.0713 l 9.88208,-5.7056 -0.0615,-0.0357 v -0.0708 z"
       style="fill:none;fill-rule:evenodd;stroke:#000000;stroke-width:0.705556"
       id="path540" />
    <path
       d="m 158.22135,119.76427 0.0615,0.0357 0.0615,-0.0357 v -0.0713 l -0.0615,-0.0356 -0.0615,0.0356 z"
       style="fill:none;fill-rule:evenodd;stroke:#000000;stroke-width:0.705556"
       id="path538" />
    <path
       d="m 158.34434,131.17546 v -11.41119 l -0.0615,0.0357 -0.0615,-0.0357 v 11.41119 l 0.0615,-0.0357 z"
       style="fill:none;fill-rule:evenodd;stroke:#000000;stroke-width:0.705556"
       id="path536" />
    <path
       d="m 168.22642,136.88105 9.88261,-5.70559 v -11.41119 l -9.88261,-5.7056 -9.88208,5.7056 v 11.41119 z"
       style="fill:#ffad79;fill-opacity:1;fill-rule:evenodd;stroke:#000000;stroke-width:0.705556"
       id="path534" />
    <path
       d="m 158.34434,131.17546 -0.0615,-0.0357 -0.0615,0.0357 v 0.0708 l 0.0615,0.0357 0.0615,-0.0357 z"
       style="fill:none;fill-rule:evenodd;stroke:#000000;stroke-width:0.705556"
       id="path535" />
    <path
       d="m 168.22642,136.88105 -9.88208,-5.70559 v 0.0708 l -0.0615,0.0357 9.88208,5.70559 v -0.0708 z"
       style="fill:none;fill-rule:evenodd;stroke:#000000;stroke-width:0.705556"
       id="path533" />
    <path
       d="m 148.40024,136.9875 -0.0615,0.0357 -0.0615,-0.0357 v 11.41119 l 0.0615,-0.0356 0.0615,0.0356 z"
       style="fill:none;fill-rule:evenodd;stroke:#000000;stroke-width:0.705556"
       id="path514" />
    <path
       d="m 148.40024,136.9875 v 11.41119 l 9.88261,5.7056 9.88208,-5.7056 V 136.9875 l -9.88208,-5.70559 z"
       style="fill:#ffad79;fill-opacity:1;fill-rule:evenodd;stroke:#000000;stroke-width:0.705556"
       id="path513" />
    <path
       d="m 148.33875,136.88105 -0.0615,0.0357 v 0.0708 l 0.0615,0.0357 0.0615,-0.0357 v -0.0708 z"
       style="fill:none;fill-rule:evenodd;stroke:#000000;stroke-width:0.705556"
       id="path512" />
    <path
       d="m 148.33875,136.88105 0.0615,0.0357 v 0.0708 l 9.88261,-5.70559 -0.0615,-0.0357 v -0.0708 z"
       style="fill:none;fill-rule:evenodd;stroke:#000000;stroke-width:0.705556"
       id="path511" />
    <path
       d="m 148.40024,148.39869 -0.0615,-0.0356 -0.0615,0.0356 v 0.0713 l 0.0615,0.0357 0.0615,-0.0357 z"
       style="fill:none;fill-rule:evenodd;stroke:#000000;stroke-width:0.705556"
       id="path516" />
    <path
       d="m 148.40024,148.39869 v 0.0713 l -0.0615,0.0357 9.8826,5.70508 v -0.0708 l 0.0615,-0.0357 z"
       style="fill:none;fill-rule:evenodd;stroke:#000000;stroke-width:0.705556"
       id="path515" />
    <path
       d="m 138.45667,154.21074 9.88208,-5.70508 -0.0615,-0.0357 v -0.0713 l -9.8826,5.7056 0.062,0.0357 z"
       style="fill:none;fill-rule:evenodd;stroke:#000000;stroke-width:0.705556"
       id="path498" />
    <path
       d="m 138.45667,154.21074 v -0.0708 l -0.062,-0.0357 -0.0615,0.0357 v 0.0708 l 0.0615,0.0357 z"
       style="fill:none;fill-rule:evenodd;stroke:#000000;stroke-width:0.705556"
       id="path497" />
    <path
       d="m 138.45667,165.62193 9.88208,5.7056 9.8826,-5.7056 v -11.41119 l -9.8826,-5.70508 -9.88208,5.70508 z"
       style="fill:#ffad79;fill-opacity:1;fill-rule:evenodd;stroke:#000000;stroke-width:0.705556"
       id="path496" />
    <path
       d="m 138.45667,165.62193 v -11.41119 l -0.062,0.0357 -0.0615,-0.0357 v 11.41119 l 0.0615,-0.0357 z"
       style="fill:none;fill-rule:evenodd;stroke:#000000;stroke-width:0.705556"
       id="path495" />
    <path
       d="m 138.39465,165.7289 9.8826,5.70508 v -0.0708 l 0.0615,-0.0357 -9.88208,-5.7056 v 0.0713 z"
       style="fill:none;fill-rule:evenodd;stroke:#000000;stroke-width:0.705556"
       id="path494" />
    <path
       d="m 138.39465,165.7289 0.062,-0.0357 v -0.0713 l -0.062,-0.0357 -0.0615,0.0357 v 0.0713 z"
       style="fill:none;fill-rule:evenodd;stroke:#000000;stroke-width:0.705556"
       id="path493" />
    <path
       d="m 128.51257,171.43398 v 11.4825 l -0.0615,0.0357 9.94358,5.74125 9.9441,-5.74125 -0.0615,-0.0357 v -11.4825 l -9.8826,-5.70508 z"
       style="fill:#ffaaaa;fill-rule:evenodd;stroke:#000000;stroke-width:0.705556"
       id="path492" />
    <path
       d="m 128.51257,171.43398 9.88208,-5.70508 -0.0615,-0.0357 v -0.0713 l -9.88209,5.7056 0.0615,0.0357 z"
       style="fill:none;fill-rule:evenodd;stroke:#000000;stroke-width:0.705556"
       id="path491" />
    <path
       d="m 128.38958,171.43398 v 11.4825 l 0.0615,0.0357 0.0615,-0.0357 v -11.4825 l -0.0615,0.0357 z"
       style="fill:none;fill-rule:evenodd;stroke:#000000;stroke-width:0.705556"
       id="path490" />
    <path
       d="m 128.38958,171.43398 0.0615,0.0357 0.0615,-0.0357 v -0.0708 l -0.0615,-0.0357 -0.0615,0.0357 z"
       style="fill:none;fill-rule:evenodd;stroke:#000000;stroke-width:0.705556"
       id="path489" />
    <path
       d="m 188.17611,102.54051 9.94358,-5.740734 v -0.0708 l -0.0615,-0.03566 -9.94357,5.740734 0.0615,0.0357 z"
       style="fill:none;fill-rule:evenodd;stroke:#000000;stroke-width:0.705556"
       id="path556" />
    <path
       d="m 188.17611,102.54051 v -0.0708 l -0.0615,-0.0357 -0.0615,0.0357 v 0.0708 l 0.0615,0.0357 z"
       style="fill:none;fill-rule:evenodd;stroke:#000000;stroke-width:0.705556"
       id="path555" />
    <path
       d="m 188.17611,113.95222 9.94358,5.74073 v 0.0713 l 9.9441,-5.74126 v -11.5533 l -9.9441,-5.740731 v 0.0708 l -9.94358,5.740731 z"
       style="fill:#ff5555;fill-rule:evenodd;stroke:#000000;stroke-width:0.705556"
       id="path554" />
    <path
       d="m 188.17611,113.95222 v -11.41171 l -0.0615,0.0357 -0.0615,-0.0357 v 11.41171 l 0.0615,-0.0357 z"
       style="fill:none;fill-rule:evenodd;stroke:#000000;stroke-width:0.705556"
       id="path553" />
    <path
       d="m 188.11462,114.05867 9.94357,5.74125 0.0615,-0.0357 v -0.0713 l -9.94358,-5.74073 v 0.0708 z"
       style="fill:none;fill-rule:evenodd;stroke:#000000;stroke-width:0.705556"
       id="path552" />
    <path
       d="m 188.11462,114.05867 0.0615,-0.0357 v -0.0708 l -0.0615,-0.0357 -0.0615,0.0357 v 0.0708 z"
       style="fill:none;fill-rule:evenodd;stroke:#000000;stroke-width:0.705556"
       id="path551" />
    <path
       d="m 178.23201,119.76427 -0.0615,0.0357 -0.0615,-0.0357 v 11.41119 l 0.0615,-0.0357 0.0615,0.0357 z"
       style="fill:none;fill-rule:evenodd;stroke:#000000;stroke-width:0.705556"
       id="path548" />
    <path
       d="m 178.23201,119.76427 v 11.41119 l 9.9441,5.74125 v 0.0708 l 9.94358,-5.74125 v -11.48198 l -0.0615,0.0357 -9.94357,-5.74125 z"
       style="fill:#ffaaaa;fill-rule:evenodd;stroke:#000000;stroke-width:0.705556"
       id="path547" />
    <path
       d="m 178.17052,119.6573 -0.0615,0.0356 v 0.0713 l 0.0615,0.0357 0.0615,-0.0357 v -0.0713 z"
       style="fill:none;fill-rule:evenodd;stroke:#000000;stroke-width:0.705556"
       id="path546" />
    <path
       d="m 178.17052,119.6573 0.0615,0.0356 v 0.0713 l 9.88261,-5.7056 -0.0615,-0.0357 v -0.0708 z"
       style="fill:none;fill-rule:evenodd;stroke:#000000;stroke-width:0.705556"
       id="path545" />
    <path
       d="m 178.23201,131.17546 -0.0615,-0.0357 -0.0615,0.0357 v 0.0708 l 0.0615,0.0357 0.0615,-0.0357 z"
       style="fill:none;fill-rule:evenodd;stroke:#000000;stroke-width:0.705556"
       id="path550" />
    <path
       d="m 178.23201,131.17546 v 0.0708 l -0.0615,0.0357 9.9441,5.74125 0.0615,-0.0357 v -0.0708 z"
       style="fill:none;fill-rule:evenodd;stroke:#000000;stroke-width:0.705556"
       id="path549" />
    <path
       d="m 168.28792,136.9875 9.8826,-5.70559 -0.0615,-0.0357 v -0.0708 l -9.88261,5.70559 0.0615,0.0357 z"
       style="fill:none;fill-rule:evenodd;stroke:#000000;stroke-width:0.705556"
       id="path532" />
    <path
       d="m 168.28792,136.9875 v -0.0708 l -0.0615,-0.0357 -0.0615,0.0357 v 0.0708 l 0.0615,0.0357 z"
       style="fill:none;fill-rule:evenodd;stroke:#000000;stroke-width:0.705556"
       id="path531" />
    <path
       d="m 168.28792,148.39869 9.94409,5.74126 v 0.0708 l 9.9441,-5.74073 V 136.9875 l -0.0615,0.0357 -9.9441,-5.74125 -9.8826,5.70559 z"
       style="fill:#ffaaaa;fill-rule:evenodd;stroke:#000000;stroke-width:0.705556"
       id="path530" />
    <path
       d="M 168.28792,148.39869 V 136.9875 l -0.0615,0.0357 -0.0615,-0.0357 v 11.41119 l 0.0615,-0.0356 z"
       style="fill:none;fill-rule:evenodd;stroke:#000000;stroke-width:0.705556"
       id="path529" />
    <path
       d="m 168.22642,148.50566 9.9441,5.74074 0.0615,-0.0357 v -0.0708 l -9.94409,-5.74126 v 0.0713 z"
       style="fill:none;fill-rule:evenodd;stroke:#000000;stroke-width:0.705556"
       id="path528" />
    <path
       d="m 168.22642,148.50566 0.0615,-0.0357 v -0.0713 l -0.0615,-0.0356 -0.0615,0.0356 v 0.0713 z"
       style="fill:none;fill-rule:evenodd;stroke:#000000;stroke-width:0.705556"
       id="path527" />
    <path
       d="m 158.34434,154.21074 -0.0615,0.0357 -0.0615,-0.0357 v 11.41119 l 0.0615,-0.0357 0.0615,0.0357 z"
       style="fill:none;fill-rule:evenodd;stroke:#000000;stroke-width:0.705556"
       id="path520" />
    <path
       d="m 158.34434,154.21074 v 11.41119 l 9.94358,5.74125 v 0.0708 l 9.94409,-5.74073 v -11.48251 l -0.0615,0.0357 -9.9441,-5.74074 z"
       style="fill:#ffaaaa;fill-rule:evenodd;stroke:#000000;stroke-width:0.705556"
       id="path519" />
    <path
       d="m 158.28285,154.10429 -0.0615,0.0357 v 0.0708 l 0.0615,0.0357 0.0615,-0.0357 v -0.0708 z"
       style="fill:none;fill-rule:evenodd;stroke:#000000;stroke-width:0.705556"
       id="path518" />
    <path
       d="m 158.28285,154.10429 0.0615,0.0357 v 0.0708 l 9.88208,-5.70508 -0.0615,-0.0357 v -0.0713 z"
       style="fill:none;fill-rule:evenodd;stroke:#000000;stroke-width:0.705556"
       id="path517" />
    <path
       d="m 148.40024,171.43398 v -0.0708 l -0.0615,-0.0357 -0.0615,0.0357 v 0.0708 l 0.0615,0.0357 z"
       style="fill:none;fill-rule:evenodd;stroke:#000000;stroke-width:0.705556"
       id="path526" />
    <path
       d="m 148.40024,171.43398 -0.0615,0.0357 -0.0615,-0.0357 v 11.4825 l 0.0615,0.0357 0.0615,-0.0357 z"
       style="fill:none;fill-rule:evenodd;stroke:#000000;stroke-width:0.705556"
       id="path525" />
    <path
       d="m 158.28285,165.7289 -0.0615,-0.0357 v -0.0713 l -9.8826,5.7056 0.0615,0.0357 v 0.0708 z"
       style="fill:none;fill-rule:evenodd;stroke:#000000;stroke-width:0.705556"
       id="path524" />
    <path
       d="m 158.28285,165.7289 -9.88261,5.70508 v 11.4825 l -0.0615,0.0357 9.9441,5.74125 10.00507,-5.77691 v -11.4825 l -0.0615,0.0357 z"
       style="fill:#ff5555;fill-rule:evenodd;stroke:#000000;stroke-width:0.705556"
       id="path523" />
    <path
       d="m 158.34434,165.62193 -0.0615,-0.0357 -0.0615,0.0357 v 0.0713 l 0.0615,0.0357 0.0615,-0.0357 z"
       style="fill:none;fill-rule:evenodd;stroke:#000000;stroke-width:0.705556"
       id="path522" />
    <path
       d="m 158.34434,165.62193 v 0.0713 l -0.0615,0.0357 9.94357,5.74074 0.0615,-0.0357 v -0.0708 z"
       style="fill:none;fill-rule:evenodd;stroke:#000000;stroke-width:0.705556"
       id="path521" />
    <path
       style="font-size:42.6667px;font-family:'CMU Serif';-inkscape-font-specification:'CMU Serif';white-space:pre;fill-rule:evenodd;stroke-width:1.15654"
       d="m 430.16081,417.89846 q 0,-6.27084 1.58333,-9.68751 2.20834,-5.08334 7.41668,-5.08334 1.10416,0 2.25,0.3125 1.16666,0.29167 2.625,1.4375 1.47917,1.14584 2.375,3.02084 1.70834,3.625 1.70834,10.00001 0,6.22917 -1.58334,9.625 -2.3125,4.95834 -7.41667,4.95834 -1.91667,0 -3.875,-0.97917 -1.93751,-0.97916 -3.16667,-3.33333 -1.91667,-3.52084 -1.91667,-10.27084 z m 3.54167,-0.52084 q 0,6.43751 0.45833,9.00001 0.52084,2.77084 1.9375,3.97917 1.4375,1.1875 3.02084,1.1875 1.70833,0 3.125,-1.27083 1.4375,-1.29167 1.875,-4.06251 0.47917,-2.72917 0.45834,-8.83334 0,-5.9375 -0.41667,-8.3125 -0.5625,-2.77084 -2.0625,-3.87501 -1.47917,-1.125 -2.97917,-1.125 -0.5625,0 -1.16667,0.16667 -0.58333,0.16667 -1.4375,0.64583 -0.85417,0.47917 -1.52083,1.66667 -0.64584,1.1875 -0.95834,2.97917 -0.33333,2.3125 -0.33333,7.85417 z"
       id="text1"
       transform="matrix(0.26458333,0,0,0.26458333,2.3181163,-2.2977941)"
       aria-label="0" />
    <path
       style="font-size:42.6667px;font-family:'CMU Serif';-inkscape-font-specification:'CMU Serif';white-space:pre;fill-rule:evenodd;stroke-width:1.15654"
       d="m 430.61914,431.5443 q 0,-0.77083 0.0625,-1 0.0833,-0.22917 0.41667,-0.58333 l 8.18751,-9.12501 q 4.47917,-5.04167 4.47917,-9.43751 0,-2.85417 -1.50001,-4.89584 -1.47916,-2.04166 -4.20833,-2.04166 -1.875,0 -3.45834,1.14583 -1.58333,1.14584 -2.3125,3.1875 0.125,-0.0417 0.5625,-0.0417 1.0625,0 1.64584,0.66666 0.60416,0.66667 0.60416,1.5625 0,1.14584 -0.75,1.70834 -0.72917,0.54167 -1.45833,0.54167 -0.29167,0 -0.6875,-0.0625 -0.375,-0.0625 -0.97917,-0.64584 -0.60417,-0.60416 -0.60417,-1.66667 0,-2.97916 2.25,-5.35417 2.27084,-2.375 5.72917,-2.375 3.91667,0 6.47918,2.33334 2.58333,2.3125 2.58333,5.9375 0,1.27084 -0.39583,2.4375 -0.375,1.14584 -0.89584,2.04167 -0.5,0.89584 -1.875,2.33334 -1.375,1.4375 -2.47917,2.45833 -1.10416,1.02084 -3.58333,3.1875 l -4.52084,4.39584 h 7.68751 q 3.75,0 4.04167,-0.33333 0.41666,-0.60417 0.9375,-3.79167 h 1.08333 l -1.20833,7.41667 z"
       id="text1-8"
       transform="matrix(0.26458333,0,0,0.26458333,22.205791,-2.1737705)"
       aria-label="2" />
    <path
       style="font-size:42.6667px;font-family:'CMU Serif';-inkscape-font-specification:'CMU Serif';white-space:pre;fill-rule:evenodd;stroke-width:1.15654"
       d="m 429.68164,424.50263 v -1.3125 l 13.10418,-20.02085 q 0.33333,-0.52083 0.85417,-0.5 0.47916,0 0.58333,0.1875 0.10417,0.1875 0.10417,0.91667 v 19.41668 h 4.27083 v 1.3125 h -4.27083 v 3.70833 q 0,1.22917 0.5,1.62501 0.52083,0.39583 2.72916,0.39583 h 0.89584 v 1.3125 q -1.75,-0.125 -5.79167,-0.125 -4.02084,0 -5.77084,0.125 v -1.3125 h 0.89583 q 2.20834,0 2.72917,-0.375 0.52084,-0.39583 0.52084,-1.64584 v -3.70833 z m 1.20834,-1.3125 h 10.39584 v -15.91668 z"
       id="text1-8-4"
       transform="matrix(0.26458333,0,0,0.26458333,42.093466,-2.1130308)"
       aria-label="4" />
    <path
       style="font-size:42.6667px;font-family:'CMU Serif';-inkscape-font-specification:'CMU Serif';white-space:pre;fill-rule:evenodd;stroke-width:1.15654"
       d="m 430.28581,418.06512 q 0,-6.70833 3.41667,-10.8125 3.41667,-4.12501 7.8125,-4.12501 2.56251,0 3.97917,1.3125 1.4375,1.29167 1.4375,3.29167 0,1.10417 -0.64583,1.58334 -0.64583,0.47916 -1.3125,0.47916 -0.77083,0 -1.375,-0.52083 -0.60417,-0.52083 -0.60417,-1.45833 0,-1.91667 2.35417,-1.91667 -1.10417,-1.70834 -3.75,-1.70834 -0.8125,0 -1.64584,0.25 -0.83333,0.22917 -1.91667,1.02084 -1.08333,0.79166 -1.91666,2.04167 -0.83334,1.25 -1.41667,3.60417 -0.58334,2.35416 -0.58334,5.41667 v 1.02083 q 1.75001,-4.22917 5.33334,-4.20834 3.58334,0 6.06251,2.72917 2.47917,2.72917 2.47917,6.77084 0,4.14584 -2.58334,6.89584 -2.58334,2.75 -6.20834,2.75 -1.625,0 -3.10417,-0.6875 -1.45833,-0.66667 -2.83333,-2.20833 -1.35417,-1.54167 -2.16667,-4.50001 -0.8125,-2.95833 -0.8125,-7.02084 z m 3.91667,3.83334 q 0,4.1875 0.77083,6.1875 0.125,0.33334 0.39584,0.79167 0.29166,0.45834 0.77083,1.0625 0.5,0.58334 1.3125,0.97917 0.8125,0.375 1.75,0.375 2.85417,0 4.22917,-2.77084 0.72917,-1.54166 0.72917,-5.72917 0,-4.27083 -0.77083,-5.83333 -1.31251,-2.64584 -3.97917,-2.64584 -1.79167,0 -3.04167,1.22917 -1.22917,1.22917 -1.70834,2.875 -0.45833,1.64584 -0.45833,3.47917 z"
       id="text1-8-4-9"
       transform="matrix(0.26458333,0,0,0.26458333,61.981401,-2.2977941)"
       aria-label="6" />
    <path
       style="font-size:42.6667px;font-family:'CMU Serif';-inkscape-font-specification:'CMU Serif';white-space:pre;fill-rule:evenodd;stroke-width:1.15654"
       d="m 432.28581,407.19012 v -1.33334 q 5.125,0 7.77084,-2.72917 0.72917,0 0.85417,0.16667 0.125,0.16667 0.125,0.9375 v 23.93752 q 0,1.27083 0.625,1.66667 0.625,0.39583 3.35417,0.39583 h 1.35416 v 1.3125 q -1.5,-0.125 -6.91667,-0.125 -5.41667,0 -6.89584,0.125 v -1.3125 h 1.35417 q 2.6875,0 3.33334,-0.375 0.64583,-0.39583 0.64583,-1.6875 v -22.10419 q -2.22917,1.12501 -5.60417,1.12501 z m 21.33335,0 v -1.33334 q 5.125,0 7.77084,-2.72917 0.72917,0 0.85417,0.16667 0.125,0.16667 0.125,0.9375 v 23.93752 q 0,1.27083 0.625,1.66667 0.625,0.39583 3.35417,0.39583 h 1.35416 v 1.3125 q -1.5,-0.125 -6.91667,-0.125 -5.41667,0 -6.89584,0.125 v -1.3125 h 1.35417 q 2.6875,0 3.33334,-0.375 0.64583,-0.39583 0.64583,-1.6875 v -22.10419 q -2.22917,1.12501 -5.60417,1.12501 z"
       id="text1-8-4-9-0"
       transform="matrix(0.26458333,0,0,0.26458333,79.058998,-2.1735185)"
       aria-label="11" />
    <path
       style="font-size:42.6667px;font-family:'CMU Serif';-inkscape-font-specification:'CMU Serif';white-space:pre;fill-rule:evenodd;stroke-width:1.15654"
       d="m 430.28581,412.73179 q 0,-2.27084 0.66667,-3.81251 0.66666,-1.5625 2.0625,-3.10417 2.5625,-2.6875 6.27084,-2.6875 1.58333,0 2.97916,0.66667 1.41667,0.66667 2.75001,2.1875 1.35416,1.5 2.16666,4.47917 0.81251,2.95834 0.81251,7.04167 0,6.60417 -3.20834,10.79168 -3.1875,4.1875 -7.50001,4.1875 -2.72916,0 -4.33333,-1.22917 -1.60417,-1.25 -1.60417,-3.375 0,-1.10417 0.625,-1.5625 0.625,-0.47917 1.33333,-0.47917 0.77084,0 1.37501,0.52084 0.60416,0.5 0.60416,1.4375 0,0.77083 -0.5,1.375 -0.47917,0.58333 -1.72917,0.58333 1.22917,1.54167 4.18751,1.54167 1.0625,0 2.125,-0.47917 1.0625,-0.5 2.20833,-1.6875 1.16667,-1.20833 1.87501,-3.72917 0.70833,-2.52083 0.70833,-6.0625 v -1.35417 q -1.70834,4.27084 -5.33334,4.27084 -3.58333,0 -6.0625,-2.75001 -2.47917,-2.75 -2.47917,-6.77083 z m 3.83333,0.0417 q 0,4.22917 0.77084,5.79167 1.3125,2.68751 3.97917,2.68751 2.60417,0 3.89583,-2.31251 1.31251,-2.33333 1.31251,-5.35417 0,-4.1875 -0.6875,-6.02083 -1.27084,-3.37501 -4.10417,-3.37501 -2.81251,0 -4.27084,2.68751 -0.89584,1.58333 -0.89584,5.89583 z"
       id="text1-8-4-9-0-7"
       transform="matrix(0.26458333,0,0,0.26458333,71.986731,-19.676369)"
       aria-label="9" />
  </g>
</svg>
